<svg xmlns="http://www.w3.org/2000/svg" viewBox="0 0 1200 460" width="1200" height="460">
<defs><radialGradient id="haze" cx="0.85" cy="0" r="0.8"><stop offset="0" stop-color="#7c4dff" stop-opacity="0.55"/><stop offset="1" stop-color="#7c4dff" stop-opacity="0"/></radialGradient><radialGradient id="haze2" cx="0" cy="1.1" r="0.7"><stop offset="0" stop-color="#19e3ff" stop-opacity="0.25"/><stop offset="1" stop-color="#19e3ff" stop-opacity="0"/></radialGradient><linearGradient id="beamP" x1="0" y1="0" x2="0" y2="1"><stop offset="0" stop-color="#ff2bd6" stop-opacity="0.5"/><stop offset="0.8" stop-color="#ff2bd6" stop-opacity="0"/></linearGradient><linearGradient id="beamC" x1="0" y1="0" x2="0" y2="1"><stop offset="0" stop-color="#19e3ff" stop-opacity="0.42"/><stop offset="0.8" stop-color="#19e3ff" stop-opacity="0"/></linearGradient><linearGradient id="bar" x1="0" y1="1" x2="0" y2="0"><stop offset="0" stop-color="#19e3ff"/><stop offset="0.6" stop-color="#7c4dff"/><stop offset="1" stop-color="#ff2bd6"/></linearGradient><filter id="neon" x="-20%" y="-20%" width="140%" height="140%"><feGaussianBlur stdDeviation="5" result="b"/><feMerge><feMergeNode in="b"/><feMergeNode in="b"/><feMergeNode in="SourceGraphic"/></feMerge></filter><filter id="soft"><feGaussianBlur stdDeviation="10"/></filter></defs>
<rect width="1200" height="460" fill="#07061a"/>
<rect width="1200" height="460" fill="url(#haze)"/><rect width="1200" height="460" fill="url(#haze2)"/>
<g filter="url(#soft)" style="mix-blend-mode:screen"><path d="M880 -20L905 -20L1180 520L560 520Z" fill="url(#beamP)"><animateTransform attributeName="transform" type="rotate" values="-14 892 -20;16 892 -20;-14 892 -20" dur="11s" repeatCount="indefinite"/></path><path d="M300 -20L322 -20L560 520L40 520Z" fill="url(#beamC)"><animateTransform attributeName="transform" type="rotate" values="18 311 -20;-12 311 -20;18 311 -20" dur="13s" repeatCount="indefinite"/></path></g>
<path d="M56.1 42.9h1.4v1.4h-1.4zM57.7 42.9h1.4v1.4h-1.4zM59.3 42.9h1.4v1.4h-1.4zM60.9 42.9h1.4v1.4h-1.4zM57.7 44.5h1.4v1.4h-1.4zM62.5 44.5h1.4v1.4h-1.4zM57.7 46.1h1.4v1.4h-1.4zM62.5 46.1h1.4v1.4h-1.4zM57.7 47.7h1.4v1.4h-1.4zM62.5 47.7h1.4v1.4h-1.4zM57.7 49.3h1.4v1.4h-1.4zM62.5 49.3h1.4v1.4h-1.4zM57.7 50.9h1.4v1.4h-1.4zM62.5 50.9h1.4v1.4h-1.4zM56.1 52.5h1.4v1.4h-1.4zM57.7 52.5h1.4v1.4h-1.4zM59.3 52.5h1.4v1.4h-1.4zM60.9 52.5h1.4v1.4h-1.4zM67.3 42.9h1.4v1.4h-1.4zM68.9 42.9h1.4v1.4h-1.4zM70.5 42.9h1.4v1.4h-1.4zM72.1 42.9h1.4v1.4h-1.4zM68.9 44.5h1.4v1.4h-1.4zM73.7 44.5h1.4v1.4h-1.4zM68.9 46.1h1.4v1.4h-1.4zM73.7 46.1h1.4v1.4h-1.4zM68.9 47.7h1.4v1.4h-1.4zM73.7 47.7h1.4v1.4h-1.4zM68.9 49.3h1.4v1.4h-1.4zM73.7 49.3h1.4v1.4h-1.4zM68.9 50.9h1.4v1.4h-1.4zM73.7 50.9h1.4v1.4h-1.4zM67.3 52.5h1.4v1.4h-1.4zM68.9 52.5h1.4v1.4h-1.4zM70.5 52.5h1.4v1.4h-1.4zM72.1 52.5h1.4v1.4h-1.4zM78.5 42.9h1.4v1.4h-1.4zM84.9 42.9h1.4v1.4h-1.4zM78.5 44.5h1.4v1.4h-1.4zM84.9 44.5h1.4v1.4h-1.4zM78.5 46.1h1.4v1.4h-1.4zM80.1 46.1h1.4v1.4h-1.4zM83.3 46.1h1.4v1.4h-1.4zM84.9 46.1h1.4v1.4h-1.4zM78.5 47.7h1.4v1.4h-1.4zM81.7 47.7h1.4v1.4h-1.4zM84.9 47.7h1.4v1.4h-1.4zM78.5 49.3h1.4v1.4h-1.4zM84.9 49.3h1.4v1.4h-1.4zM78.5 50.9h1.4v1.4h-1.4zM84.9 50.9h1.4v1.4h-1.4zM78.5 52.5h1.4v1.4h-1.4zM84.9 52.5h1.4v1.4h-1.4zM92.9 42.9h1.4v1.4h-1.4zM91.3 44.5h1.4v1.4h-1.4zM94.5 44.5h1.4v1.4h-1.4zM89.7 46.1h1.4v1.4h-1.4zM96.1 46.1h1.4v1.4h-1.4zM89.7 47.7h1.4v1.4h-1.4zM96.1 47.7h1.4v1.4h-1.4zM89.7 49.3h1.4v1.4h-1.4zM91.3 49.3h1.4v1.4h-1.4zM92.9 49.3h1.4v1.4h-1.4zM94.5 49.3h1.4v1.4h-1.4zM96.1 49.3h1.4v1.4h-1.4zM89.7 50.9h1.4v1.4h-1.4zM96.1 50.9h1.4v1.4h-1.4zM89.7 52.5h1.4v1.4h-1.4zM96.1 52.5h1.4v1.4h-1.4zM100.9 42.9h1.4v1.4h-1.4zM107.3 42.9h1.4v1.4h-1.4zM100.9 44.5h1.4v1.4h-1.4zM107.3 44.5h1.4v1.4h-1.4zM100.9 46.1h1.4v1.4h-1.4zM102.5 46.1h1.4v1.4h-1.4zM107.3 46.1h1.4v1.4h-1.4zM100.9 47.7h1.4v1.4h-1.4zM104.1 47.7h1.4v1.4h-1.4zM107.3 47.7h1.4v1.4h-1.4zM100.9 49.3h1.4v1.4h-1.4zM105.7 49.3h1.4v1.4h-1.4zM107.3 49.3h1.4v1.4h-1.4zM100.9 50.9h1.4v1.4h-1.4zM107.3 50.9h1.4v1.4h-1.4zM100.9 52.5h1.4v1.4h-1.4zM107.3 52.5h1.4v1.4h-1.4zM115.3 42.9h1.4v1.4h-1.4zM113.7 44.5h1.4v1.4h-1.4zM115.3 44.5h1.4v1.4h-1.4zM112.1 46.1h1.4v1.4h-1.4zM115.3 46.1h1.4v1.4h-1.4zM115.3 47.7h1.4v1.4h-1.4zM115.3 49.3h1.4v1.4h-1.4zM115.3 50.9h1.4v1.4h-1.4zM112.1 52.5h1.4v1.4h-1.4zM113.7 52.5h1.4v1.4h-1.4zM115.3 52.5h1.4v1.4h-1.4zM116.9 52.5h1.4v1.4h-1.4zM118.5 52.5h1.4v1.4h-1.4zM126.5 42.9h1.4v1.4h-1.4zM124.9 44.5h1.4v1.4h-1.4zM126.5 44.5h1.4v1.4h-1.4zM123.3 46.1h1.4v1.4h-1.4zM126.5 46.1h1.4v1.4h-1.4zM126.5 47.7h1.4v1.4h-1.4zM126.5 49.3h1.4v1.4h-1.4zM126.5 50.9h1.4v1.4h-1.4zM123.3 52.5h1.4v1.4h-1.4zM124.9 52.5h1.4v1.4h-1.4zM126.5 52.5h1.4v1.4h-1.4zM128.1 52.5h1.4v1.4h-1.4zM129.7 52.5h1.4v1.4h-1.4zM137.7 42.9h1.4v1.4h-1.4zM136.1 44.5h1.4v1.4h-1.4zM139.3 44.5h1.4v1.4h-1.4zM134.5 46.1h1.4v1.4h-1.4zM140.9 46.1h1.4v1.4h-1.4zM134.5 47.7h1.4v1.4h-1.4zM140.9 47.7h1.4v1.4h-1.4zM134.5 49.3h1.4v1.4h-1.4zM140.9 49.3h1.4v1.4h-1.4zM136.1 50.9h1.4v1.4h-1.4zM139.3 50.9h1.4v1.4h-1.4zM137.7 52.5h1.4v1.4h-1.4zM148.9 42.9h1.4v1.4h-1.4zM147.3 44.5h1.4v1.4h-1.4zM148.9 44.5h1.4v1.4h-1.4zM145.7 46.1h1.4v1.4h-1.4zM148.9 46.1h1.4v1.4h-1.4zM148.9 47.7h1.4v1.4h-1.4zM148.9 49.3h1.4v1.4h-1.4zM148.9 50.9h1.4v1.4h-1.4zM145.7 52.5h1.4v1.4h-1.4zM147.3 52.5h1.4v1.4h-1.4zM148.9 52.5h1.4v1.4h-1.4zM150.5 52.5h1.4v1.4h-1.4zM152.1 52.5h1.4v1.4h-1.4zM174.5 42.9h1.4v1.4h-1.4zM174.5 44.5h1.4v1.4h-1.4zM172.9 46.1h1.4v1.4h-1.4zM171.3 47.7h1.4v1.4h-1.4zM169.7 49.3h1.4v1.4h-1.4zM168.1 50.9h1.4v1.4h-1.4zM168.1 52.5h1.4v1.4h-1.4zM190.5 42.9h1.4v1.4h-1.4zM192.1 42.9h1.4v1.4h-1.4zM193.7 42.9h1.4v1.4h-1.4zM195.3 42.9h1.4v1.4h-1.4zM196.9 42.9h1.4v1.4h-1.4zM193.7 44.5h1.4v1.4h-1.4zM193.7 46.1h1.4v1.4h-1.4zM193.7 47.7h1.4v1.4h-1.4zM193.7 49.3h1.4v1.4h-1.4zM193.7 50.9h1.4v1.4h-1.4zM193.7 52.5h1.4v1.4h-1.4zM204.9 42.9h1.4v1.4h-1.4zM203.3 44.5h1.4v1.4h-1.4zM206.5 44.5h1.4v1.4h-1.4zM201.7 46.1h1.4v1.4h-1.4zM208.1 46.1h1.4v1.4h-1.4zM201.7 47.7h1.4v1.4h-1.4zM208.1 47.7h1.4v1.4h-1.4zM201.7 49.3h1.4v1.4h-1.4zM203.3 49.3h1.4v1.4h-1.4zM204.9 49.3h1.4v1.4h-1.4zM206.5 49.3h1.4v1.4h-1.4zM208.1 49.3h1.4v1.4h-1.4zM201.7 50.9h1.4v1.4h-1.4zM208.1 50.9h1.4v1.4h-1.4zM201.7 52.5h1.4v1.4h-1.4zM208.1 52.5h1.4v1.4h-1.4zM214.5 42.9h1.4v1.4h-1.4zM216.1 42.9h1.4v1.4h-1.4zM217.7 42.9h1.4v1.4h-1.4zM216.1 44.5h1.4v1.4h-1.4zM216.1 46.1h1.4v1.4h-1.4zM216.1 47.7h1.4v1.4h-1.4zM216.1 49.3h1.4v1.4h-1.4zM216.1 50.9h1.4v1.4h-1.4zM214.5 52.5h1.4v1.4h-1.4zM216.1 52.5h1.4v1.4h-1.4zM217.7 52.5h1.4v1.4h-1.4zM224.1 42.9h1.4v1.4h-1.4zM225.7 42.9h1.4v1.4h-1.4zM227.3 42.9h1.4v1.4h-1.4zM228.9 42.9h1.4v1.4h-1.4zM224.1 44.5h1.4v1.4h-1.4zM230.5 44.5h1.4v1.4h-1.4zM224.1 46.1h1.4v1.4h-1.4zM230.5 46.1h1.4v1.4h-1.4zM224.1 47.7h1.4v1.4h-1.4zM225.7 47.7h1.4v1.4h-1.4zM227.3 47.7h1.4v1.4h-1.4zM228.9 47.7h1.4v1.4h-1.4zM224.1 49.3h1.4v1.4h-1.4zM224.1 50.9h1.4v1.4h-1.4zM224.1 52.5h1.4v1.4h-1.4zM235.3 42.9h1.4v1.4h-1.4zM236.9 42.9h1.4v1.4h-1.4zM238.5 42.9h1.4v1.4h-1.4zM240.1 42.9h1.4v1.4h-1.4zM241.7 42.9h1.4v1.4h-1.4zM235.3 44.5h1.4v1.4h-1.4zM235.3 46.1h1.4v1.4h-1.4zM235.3 47.7h1.4v1.4h-1.4zM236.9 47.7h1.4v1.4h-1.4zM238.5 47.7h1.4v1.4h-1.4zM240.1 47.7h1.4v1.4h-1.4zM235.3 49.3h1.4v1.4h-1.4zM235.3 50.9h1.4v1.4h-1.4zM235.3 52.5h1.4v1.4h-1.4zM236.9 52.5h1.4v1.4h-1.4zM238.5 52.5h1.4v1.4h-1.4zM240.1 52.5h1.4v1.4h-1.4zM241.7 52.5h1.4v1.4h-1.4zM248.1 42.9h1.4v1.4h-1.4zM249.7 42.9h1.4v1.4h-1.4zM251.3 42.9h1.4v1.4h-1.4zM249.7 44.5h1.4v1.4h-1.4zM249.7 46.1h1.4v1.4h-1.4zM249.7 47.7h1.4v1.4h-1.4zM249.7 49.3h1.4v1.4h-1.4zM249.7 50.9h1.4v1.4h-1.4zM248.1 52.5h1.4v1.4h-1.4zM249.7 52.5h1.4v1.4h-1.4zM251.3 52.5h1.4v1.4h-1.4z" fill="#928cb3"/>
<path d="M764.9 42.9h1.4v1.4h-1.4zM766.5 42.9h1.4v1.4h-1.4zM768.1 42.9h1.4v1.4h-1.4zM769.7 42.9h1.4v1.4h-1.4zM764.9 44.5h1.4v1.4h-1.4zM771.3 44.5h1.4v1.4h-1.4zM764.9 46.1h1.4v1.4h-1.4zM771.3 46.1h1.4v1.4h-1.4zM764.9 47.7h1.4v1.4h-1.4zM766.5 47.7h1.4v1.4h-1.4zM768.1 47.7h1.4v1.4h-1.4zM769.7 47.7h1.4v1.4h-1.4zM764.9 49.3h1.4v1.4h-1.4zM764.9 50.9h1.4v1.4h-1.4zM764.9 52.5h1.4v1.4h-1.4zM776.1 42.9h1.4v1.4h-1.4zM782.5 42.9h1.4v1.4h-1.4zM776.1 44.5h1.4v1.4h-1.4zM782.5 44.5h1.4v1.4h-1.4zM776.1 46.1h1.4v1.4h-1.4zM782.5 46.1h1.4v1.4h-1.4zM776.1 47.7h1.4v1.4h-1.4zM777.7 47.7h1.4v1.4h-1.4zM779.3 47.7h1.4v1.4h-1.4zM780.9 47.7h1.4v1.4h-1.4zM782.5 47.7h1.4v1.4h-1.4zM776.1 49.3h1.4v1.4h-1.4zM782.5 49.3h1.4v1.4h-1.4zM776.1 50.9h1.4v1.4h-1.4zM782.5 50.9h1.4v1.4h-1.4zM776.1 52.5h1.4v1.4h-1.4zM782.5 52.5h1.4v1.4h-1.4zM787.3 42.9h1.4v1.4h-1.4zM788.9 42.9h1.4v1.4h-1.4zM790.5 42.9h1.4v1.4h-1.4zM792.1 42.9h1.4v1.4h-1.4zM788.9 44.5h1.4v1.4h-1.4zM793.7 44.5h1.4v1.4h-1.4zM788.9 46.1h1.4v1.4h-1.4zM793.7 46.1h1.4v1.4h-1.4zM788.9 47.7h1.4v1.4h-1.4zM793.7 47.7h1.4v1.4h-1.4zM788.9 49.3h1.4v1.4h-1.4zM793.7 49.3h1.4v1.4h-1.4zM788.9 50.9h1.4v1.4h-1.4zM793.7 50.9h1.4v1.4h-1.4zM787.3 52.5h1.4v1.4h-1.4zM788.9 52.5h1.4v1.4h-1.4zM790.5 52.5h1.4v1.4h-1.4zM792.1 52.5h1.4v1.4h-1.4zM811.3 42.9h1.4v1.4h-1.4zM812.9 42.9h1.4v1.4h-1.4zM814.5 42.9h1.4v1.4h-1.4zM809.7 44.5h1.4v1.4h-1.4zM816.1 44.5h1.4v1.4h-1.4zM809.7 46.1h1.4v1.4h-1.4zM811.3 47.7h1.4v1.4h-1.4zM812.9 47.7h1.4v1.4h-1.4zM814.5 47.7h1.4v1.4h-1.4zM816.1 49.3h1.4v1.4h-1.4zM809.7 50.9h1.4v1.4h-1.4zM816.1 50.9h1.4v1.4h-1.4zM811.3 52.5h1.4v1.4h-1.4zM812.9 52.5h1.4v1.4h-1.4zM814.5 52.5h1.4v1.4h-1.4zM820.9 42.9h1.4v1.4h-1.4zM822.5 42.9h1.4v1.4h-1.4zM824.1 42.9h1.4v1.4h-1.4zM825.7 42.9h1.4v1.4h-1.4zM827.3 42.9h1.4v1.4h-1.4zM824.1 44.5h1.4v1.4h-1.4zM824.1 46.1h1.4v1.4h-1.4zM824.1 47.7h1.4v1.4h-1.4zM824.1 49.3h1.4v1.4h-1.4zM824.1 50.9h1.4v1.4h-1.4zM824.1 52.5h1.4v1.4h-1.4zM832.1 42.9h1.4v1.4h-1.4zM838.5 42.9h1.4v1.4h-1.4zM832.1 44.5h1.4v1.4h-1.4zM838.5 44.5h1.4v1.4h-1.4zM832.1 46.1h1.4v1.4h-1.4zM838.5 46.1h1.4v1.4h-1.4zM832.1 47.7h1.4v1.4h-1.4zM838.5 47.7h1.4v1.4h-1.4zM832.1 49.3h1.4v1.4h-1.4zM838.5 49.3h1.4v1.4h-1.4zM832.1 50.9h1.4v1.4h-1.4zM838.5 50.9h1.4v1.4h-1.4zM833.7 52.5h1.4v1.4h-1.4zM835.3 52.5h1.4v1.4h-1.4zM836.9 52.5h1.4v1.4h-1.4zM843.3 42.9h1.4v1.4h-1.4zM844.9 42.9h1.4v1.4h-1.4zM846.5 42.9h1.4v1.4h-1.4zM848.1 42.9h1.4v1.4h-1.4zM844.9 44.5h1.4v1.4h-1.4zM849.7 44.5h1.4v1.4h-1.4zM844.9 46.1h1.4v1.4h-1.4zM849.7 46.1h1.4v1.4h-1.4zM844.9 47.7h1.4v1.4h-1.4zM849.7 47.7h1.4v1.4h-1.4zM844.9 49.3h1.4v1.4h-1.4zM849.7 49.3h1.4v1.4h-1.4zM844.9 50.9h1.4v1.4h-1.4zM849.7 50.9h1.4v1.4h-1.4zM843.3 52.5h1.4v1.4h-1.4zM844.9 52.5h1.4v1.4h-1.4zM846.5 52.5h1.4v1.4h-1.4zM848.1 52.5h1.4v1.4h-1.4zM854.5 42.9h1.4v1.4h-1.4zM856.1 42.9h1.4v1.4h-1.4zM857.7 42.9h1.4v1.4h-1.4zM859.3 42.9h1.4v1.4h-1.4zM860.9 42.9h1.4v1.4h-1.4zM854.5 44.5h1.4v1.4h-1.4zM854.5 46.1h1.4v1.4h-1.4zM854.5 47.7h1.4v1.4h-1.4zM856.1 47.7h1.4v1.4h-1.4zM857.7 47.7h1.4v1.4h-1.4zM859.3 47.7h1.4v1.4h-1.4zM854.5 49.3h1.4v1.4h-1.4zM854.5 50.9h1.4v1.4h-1.4zM854.5 52.5h1.4v1.4h-1.4zM856.1 52.5h1.4v1.4h-1.4zM857.7 52.5h1.4v1.4h-1.4zM859.3 52.5h1.4v1.4h-1.4zM860.9 52.5h1.4v1.4h-1.4zM865.7 42.9h1.4v1.4h-1.4zM872.1 42.9h1.4v1.4h-1.4zM865.7 44.5h1.4v1.4h-1.4zM872.1 44.5h1.4v1.4h-1.4zM865.7 46.1h1.4v1.4h-1.4zM867.3 46.1h1.4v1.4h-1.4zM872.1 46.1h1.4v1.4h-1.4zM865.7 47.7h1.4v1.4h-1.4zM868.9 47.7h1.4v1.4h-1.4zM872.1 47.7h1.4v1.4h-1.4zM865.7 49.3h1.4v1.4h-1.4zM870.5 49.3h1.4v1.4h-1.4zM872.1 49.3h1.4v1.4h-1.4zM865.7 50.9h1.4v1.4h-1.4zM872.1 50.9h1.4v1.4h-1.4zM865.7 52.5h1.4v1.4h-1.4zM872.1 52.5h1.4v1.4h-1.4zM876.9 42.9h1.4v1.4h-1.4zM878.5 42.9h1.4v1.4h-1.4zM880.1 42.9h1.4v1.4h-1.4zM881.7 42.9h1.4v1.4h-1.4zM883.3 42.9h1.4v1.4h-1.4zM880.1 44.5h1.4v1.4h-1.4zM880.1 46.1h1.4v1.4h-1.4zM880.1 47.7h1.4v1.4h-1.4zM880.1 49.3h1.4v1.4h-1.4zM880.1 50.9h1.4v1.4h-1.4zM880.1 52.5h1.4v1.4h-1.4zM910.5 42.9h1.4v1.4h-1.4zM916.9 42.9h1.4v1.4h-1.4zM910.5 44.5h1.4v1.4h-1.4zM916.9 44.5h1.4v1.4h-1.4zM910.5 46.1h1.4v1.4h-1.4zM912.1 46.1h1.4v1.4h-1.4zM916.9 46.1h1.4v1.4h-1.4zM910.5 47.7h1.4v1.4h-1.4zM913.7 47.7h1.4v1.4h-1.4zM916.9 47.7h1.4v1.4h-1.4zM910.5 49.3h1.4v1.4h-1.4zM915.3 49.3h1.4v1.4h-1.4zM916.9 49.3h1.4v1.4h-1.4zM910.5 50.9h1.4v1.4h-1.4zM916.9 50.9h1.4v1.4h-1.4zM910.5 52.5h1.4v1.4h-1.4zM916.9 52.5h1.4v1.4h-1.4zM921.7 42.9h1.4v1.4h-1.4zM923.3 42.9h1.4v1.4h-1.4zM924.9 42.9h1.4v1.4h-1.4zM926.5 42.9h1.4v1.4h-1.4zM928.1 42.9h1.4v1.4h-1.4zM924.9 44.5h1.4v1.4h-1.4zM924.9 46.1h1.4v1.4h-1.4zM924.9 47.7h1.4v1.4h-1.4zM924.9 49.3h1.4v1.4h-1.4zM924.9 50.9h1.4v1.4h-1.4zM924.9 52.5h1.4v1.4h-1.4zM932.9 42.9h1.4v1.4h-1.4zM939.3 42.9h1.4v1.4h-1.4zM932.9 44.5h1.4v1.4h-1.4zM939.3 44.5h1.4v1.4h-1.4zM932.9 46.1h1.4v1.4h-1.4zM939.3 46.1h1.4v1.4h-1.4zM932.9 47.7h1.4v1.4h-1.4zM939.3 47.7h1.4v1.4h-1.4zM932.9 49.3h1.4v1.4h-1.4zM939.3 49.3h1.4v1.4h-1.4zM932.9 50.9h1.4v1.4h-1.4zM939.3 50.9h1.4v1.4h-1.4zM934.5 52.5h1.4v1.4h-1.4zM936.1 52.5h1.4v1.4h-1.4zM937.7 52.5h1.4v1.4h-1.4zM955.3 46.1h1.4v1.4h-1.4zM961.7 46.1h1.4v1.4h-1.4zM956.9 47.7h1.4v1.4h-1.4zM960.1 47.7h1.4v1.4h-1.4zM958.5 49.3h1.4v1.4h-1.4zM956.9 50.9h1.4v1.4h-1.4zM960.1 50.9h1.4v1.4h-1.4zM955.3 52.5h1.4v1.4h-1.4zM961.7 52.5h1.4v1.4h-1.4zM980.9 42.9h1.4v1.4h-1.4zM979.3 44.5h1.4v1.4h-1.4zM982.5 44.5h1.4v1.4h-1.4zM977.7 46.1h1.4v1.4h-1.4zM984.1 46.1h1.4v1.4h-1.4zM977.7 47.7h1.4v1.4h-1.4zM984.1 47.7h1.4v1.4h-1.4zM977.7 49.3h1.4v1.4h-1.4zM979.3 49.3h1.4v1.4h-1.4zM980.9 49.3h1.4v1.4h-1.4zM982.5 49.3h1.4v1.4h-1.4zM984.1 49.3h1.4v1.4h-1.4zM977.7 50.9h1.4v1.4h-1.4zM984.1 50.9h1.4v1.4h-1.4zM977.7 52.5h1.4v1.4h-1.4zM984.1 52.5h1.4v1.4h-1.4zM990.5 42.9h1.4v1.4h-1.4zM992.1 42.9h1.4v1.4h-1.4zM993.7 42.9h1.4v1.4h-1.4zM988.9 44.5h1.4v1.4h-1.4zM995.3 44.5h1.4v1.4h-1.4zM988.9 46.1h1.4v1.4h-1.4zM988.9 47.7h1.4v1.4h-1.4zM988.9 49.3h1.4v1.4h-1.4zM988.9 50.9h1.4v1.4h-1.4zM995.3 50.9h1.4v1.4h-1.4zM990.5 52.5h1.4v1.4h-1.4zM992.1 52.5h1.4v1.4h-1.4zM993.7 52.5h1.4v1.4h-1.4zM1003.3 42.9h1.4v1.4h-1.4zM1001.7 44.5h1.4v1.4h-1.4zM1004.9 44.5h1.4v1.4h-1.4zM1000.1 46.1h1.4v1.4h-1.4zM1006.5 46.1h1.4v1.4h-1.4zM1000.1 47.7h1.4v1.4h-1.4zM1006.5 47.7h1.4v1.4h-1.4zM1000.1 49.3h1.4v1.4h-1.4zM1001.7 49.3h1.4v1.4h-1.4zM1003.3 49.3h1.4v1.4h-1.4zM1004.9 49.3h1.4v1.4h-1.4zM1006.5 49.3h1.4v1.4h-1.4zM1000.1 50.9h1.4v1.4h-1.4zM1006.5 50.9h1.4v1.4h-1.4zM1000.1 52.5h1.4v1.4h-1.4zM1006.5 52.5h1.4v1.4h-1.4zM1011.3 42.9h1.4v1.4h-1.4zM1012.9 42.9h1.4v1.4h-1.4zM1014.5 42.9h1.4v1.4h-1.4zM1016.1 42.9h1.4v1.4h-1.4zM1012.9 44.5h1.4v1.4h-1.4zM1017.7 44.5h1.4v1.4h-1.4zM1012.9 46.1h1.4v1.4h-1.4zM1017.7 46.1h1.4v1.4h-1.4zM1012.9 47.7h1.4v1.4h-1.4zM1017.7 47.7h1.4v1.4h-1.4zM1012.9 49.3h1.4v1.4h-1.4zM1017.7 49.3h1.4v1.4h-1.4zM1012.9 50.9h1.4v1.4h-1.4zM1017.7 50.9h1.4v1.4h-1.4zM1011.3 52.5h1.4v1.4h-1.4zM1012.9 52.5h1.4v1.4h-1.4zM1014.5 52.5h1.4v1.4h-1.4zM1016.1 52.5h1.4v1.4h-1.4zM1022.5 42.9h1.4v1.4h-1.4zM1024.1 42.9h1.4v1.4h-1.4zM1025.7 42.9h1.4v1.4h-1.4zM1027.3 42.9h1.4v1.4h-1.4zM1028.9 42.9h1.4v1.4h-1.4zM1022.5 44.5h1.4v1.4h-1.4zM1022.5 46.1h1.4v1.4h-1.4zM1022.5 47.7h1.4v1.4h-1.4zM1024.1 47.7h1.4v1.4h-1.4zM1025.7 47.7h1.4v1.4h-1.4zM1027.3 47.7h1.4v1.4h-1.4zM1022.5 49.3h1.4v1.4h-1.4zM1022.5 50.9h1.4v1.4h-1.4zM1022.5 52.5h1.4v1.4h-1.4zM1024.1 52.5h1.4v1.4h-1.4zM1025.7 52.5h1.4v1.4h-1.4zM1027.3 52.5h1.4v1.4h-1.4zM1028.9 52.5h1.4v1.4h-1.4zM1033.7 42.9h1.4v1.4h-1.4zM1040.1 42.9h1.4v1.4h-1.4zM1033.7 44.5h1.4v1.4h-1.4zM1040.1 44.5h1.4v1.4h-1.4zM1033.7 46.1h1.4v1.4h-1.4zM1035.3 46.1h1.4v1.4h-1.4zM1038.5 46.1h1.4v1.4h-1.4zM1040.1 46.1h1.4v1.4h-1.4zM1033.7 47.7h1.4v1.4h-1.4zM1036.9 47.7h1.4v1.4h-1.4zM1040.1 47.7h1.4v1.4h-1.4zM1033.7 49.3h1.4v1.4h-1.4zM1040.1 49.3h1.4v1.4h-1.4zM1033.7 50.9h1.4v1.4h-1.4zM1040.1 50.9h1.4v1.4h-1.4zM1033.7 52.5h1.4v1.4h-1.4zM1040.1 52.5h1.4v1.4h-1.4zM1046.5 42.9h1.4v1.4h-1.4zM1048.1 42.9h1.4v1.4h-1.4zM1049.7 42.9h1.4v1.4h-1.4zM1048.1 44.5h1.4v1.4h-1.4zM1048.1 46.1h1.4v1.4h-1.4zM1048.1 47.7h1.4v1.4h-1.4zM1048.1 49.3h1.4v1.4h-1.4zM1048.1 50.9h1.4v1.4h-1.4zM1046.5 52.5h1.4v1.4h-1.4zM1048.1 52.5h1.4v1.4h-1.4zM1049.7 52.5h1.4v1.4h-1.4zM1059.3 42.9h1.4v1.4h-1.4zM1057.7 44.5h1.4v1.4h-1.4zM1060.9 44.5h1.4v1.4h-1.4zM1056.1 46.1h1.4v1.4h-1.4zM1062.5 46.1h1.4v1.4h-1.4zM1056.1 47.7h1.4v1.4h-1.4zM1062.5 47.7h1.4v1.4h-1.4zM1056.1 49.3h1.4v1.4h-1.4zM1057.7 49.3h1.4v1.4h-1.4zM1059.3 49.3h1.4v1.4h-1.4zM1060.9 49.3h1.4v1.4h-1.4zM1062.5 49.3h1.4v1.4h-1.4zM1056.1 50.9h1.4v1.4h-1.4zM1062.5 50.9h1.4v1.4h-1.4zM1056.1 52.5h1.4v1.4h-1.4zM1062.5 52.5h1.4v1.4h-1.4zM1080.1 42.9h1.4v1.4h-1.4zM1081.7 42.9h1.4v1.4h-1.4zM1083.3 42.9h1.4v1.4h-1.4zM1078.5 44.5h1.4v1.4h-1.4zM1084.9 44.5h1.4v1.4h-1.4zM1078.5 46.1h1.4v1.4h-1.4zM1080.1 47.7h1.4v1.4h-1.4zM1081.7 47.7h1.4v1.4h-1.4zM1083.3 47.7h1.4v1.4h-1.4zM1084.9 49.3h1.4v1.4h-1.4zM1078.5 50.9h1.4v1.4h-1.4zM1084.9 50.9h1.4v1.4h-1.4zM1080.1 52.5h1.4v1.4h-1.4zM1081.7 52.5h1.4v1.4h-1.4zM1083.3 52.5h1.4v1.4h-1.4zM1091.3 42.9h1.4v1.4h-1.4zM1092.9 42.9h1.4v1.4h-1.4zM1094.5 42.9h1.4v1.4h-1.4zM1092.9 44.5h1.4v1.4h-1.4zM1092.9 46.1h1.4v1.4h-1.4zM1092.9 47.7h1.4v1.4h-1.4zM1092.9 49.3h1.4v1.4h-1.4zM1092.9 50.9h1.4v1.4h-1.4zM1091.3 52.5h1.4v1.4h-1.4zM1092.9 52.5h1.4v1.4h-1.4zM1094.5 52.5h1.4v1.4h-1.4zM1100.9 42.9h1.4v1.4h-1.4zM1107.3 42.9h1.4v1.4h-1.4zM1100.9 44.5h1.4v1.4h-1.4zM1107.3 44.5h1.4v1.4h-1.4zM1100.9 46.1h1.4v1.4h-1.4zM1102.5 46.1h1.4v1.4h-1.4zM1107.3 46.1h1.4v1.4h-1.4zM1100.9 47.7h1.4v1.4h-1.4zM1104.1 47.7h1.4v1.4h-1.4zM1107.3 47.7h1.4v1.4h-1.4zM1100.9 49.3h1.4v1.4h-1.4zM1105.7 49.3h1.4v1.4h-1.4zM1107.3 49.3h1.4v1.4h-1.4zM1100.9 50.9h1.4v1.4h-1.4zM1107.3 50.9h1.4v1.4h-1.4zM1100.9 52.5h1.4v1.4h-1.4zM1107.3 52.5h1.4v1.4h-1.4zM1113.7 42.9h1.4v1.4h-1.4zM1115.3 42.9h1.4v1.4h-1.4zM1116.9 42.9h1.4v1.4h-1.4zM1115.3 44.5h1.4v1.4h-1.4zM1115.3 46.1h1.4v1.4h-1.4zM1115.3 47.7h1.4v1.4h-1.4zM1115.3 49.3h1.4v1.4h-1.4zM1115.3 50.9h1.4v1.4h-1.4zM1113.7 52.5h1.4v1.4h-1.4zM1115.3 52.5h1.4v1.4h-1.4zM1116.9 52.5h1.4v1.4h-1.4zM1124.9 42.9h1.4v1.4h-1.4zM1126.5 42.9h1.4v1.4h-1.4zM1128.1 42.9h1.4v1.4h-1.4zM1123.3 44.5h1.4v1.4h-1.4zM1129.7 44.5h1.4v1.4h-1.4zM1123.3 46.1h1.4v1.4h-1.4zM1123.3 47.7h1.4v1.4h-1.4zM1123.3 49.3h1.4v1.4h-1.4zM1123.3 50.9h1.4v1.4h-1.4zM1129.7 50.9h1.4v1.4h-1.4zM1124.9 52.5h1.4v1.4h-1.4zM1126.5 52.5h1.4v1.4h-1.4zM1128.1 52.5h1.4v1.4h-1.4zM1137.7 42.9h1.4v1.4h-1.4zM1136.1 44.5h1.4v1.4h-1.4zM1139.3 44.5h1.4v1.4h-1.4zM1134.5 46.1h1.4v1.4h-1.4zM1140.9 46.1h1.4v1.4h-1.4zM1134.5 47.7h1.4v1.4h-1.4zM1140.9 47.7h1.4v1.4h-1.4zM1134.5 49.3h1.4v1.4h-1.4zM1136.1 49.3h1.4v1.4h-1.4zM1137.7 49.3h1.4v1.4h-1.4zM1139.3 49.3h1.4v1.4h-1.4zM1140.9 49.3h1.4v1.4h-1.4zM1134.5 50.9h1.4v1.4h-1.4zM1140.9 50.9h1.4v1.4h-1.4zM1134.5 52.5h1.4v1.4h-1.4zM1140.9 52.5h1.4v1.4h-1.4z" fill="#19e3ff"/>
<g filter="url(#neon)" opacity="0.35"><path d="M80.0 187.6 52.6 94.3H86.8L97.9 135.7Q98.9 138.9 99.6 142.0Q100.2 145.2 100.8 147.7Q101.3 150.2 101.6 151.7H102.5Q102.8 150.2 103.2 148.1Q103.6 146.1 104.0 143.9Q104.4 141.8 105.0 139.6Q105.5 137.4 105.9 135.7L116.5 94.3H157.3L167.8 135.7Q168.5 138.1 169.1 141.0Q169.7 143.9 170.2 146.8Q170.8 149.6 171.2 151.7H172.1Q172.4 150.0 172.9 148.0Q173.3 146.0 173.8 143.8Q174.3 141.6 174.8 139.5Q175.4 137.4 175.8 135.7L187.0 94.3H218.1L190.7 187.6H152.2L138.8 135.1Q138.2 132.8 137.6 130.5Q137.0 128.2 136.6 126.3Q136.2 124.4 135.9 123.3H135.0Q134.5 124.9 134.0 127.1Q133.5 129.3 133.0 131.4Q132.5 133.5 132.1 135.1L118.5 187.6Z M226.1 187.6V94.3H325.8V117.5H259.7V129.6H316.7V151.5H259.7V164.4H326.9V187.6Z M340.0 187.6V94.3H373.5V187.6Z M387.6 162.0V138.6H430.5V162.0Z M444.6 187.6V94.3H478.1V127.4H527.9V94.3H561.4V187.6H527.9V153.0H478.1V187.6Z M569.8 187.6 614.9 94.3H651.8L697.0 187.6H661.1L655.5 175.3H609.8L604.4 187.6ZM620.0 152.1H645.3L638.8 136.3Q638.4 135.2 637.7 133.4Q637.1 131.6 636.2 129.3Q635.4 127.0 634.7 124.7Q633.9 122.4 633.3 120.5H632.3Q631.5 122.8 630.4 125.8Q629.3 128.7 628.3 131.6Q627.3 134.4 626.5 136.3Z M705.4 187.6V94.3H734.6L780.7 133.2Q781.5 133.9 783.0 135.2Q784.5 136.6 786.1 138.1Q787.7 139.6 789.1 140.8H790.4Q790.4 138.9 790.4 135.7Q790.4 132.5 790.4 129.6V94.3H821.9V187.6H793.0L749.2 150.8Q746.4 148.5 743.2 145.7Q740.0 142.8 738.1 141.1H736.9Q736.9 143.0 736.9 146.4Q736.9 149.9 736.9 153.4V187.6Z" fill="#7c4dff"/></g>
<path d="M80.0 187.6 52.6 94.3H86.8L97.9 135.7Q98.9 138.9 99.6 142.0Q100.2 145.2 100.8 147.7Q101.3 150.2 101.6 151.7H102.5Q102.8 150.2 103.2 148.1Q103.6 146.1 104.0 143.9Q104.4 141.8 105.0 139.6Q105.5 137.4 105.9 135.7L116.5 94.3H157.3L167.8 135.7Q168.5 138.1 169.1 141.0Q169.7 143.9 170.2 146.8Q170.8 149.6 171.2 151.7H172.1Q172.4 150.0 172.9 148.0Q173.3 146.0 173.8 143.8Q174.3 141.6 174.8 139.5Q175.4 137.4 175.8 135.7L187.0 94.3H218.1L190.7 187.6H152.2L138.8 135.1Q138.2 132.8 137.6 130.5Q137.0 128.2 136.6 126.3Q136.2 124.4 135.9 123.3H135.0Q134.5 124.9 134.0 127.1Q133.5 129.3 133.0 131.4Q132.5 133.5 132.1 135.1L118.5 187.6Z M226.1 187.6V94.3H325.8V117.5H259.7V129.6H316.7V151.5H259.7V164.4H326.9V187.6Z M340.0 187.6V94.3H373.5V187.6Z M387.6 162.0V138.6H430.5V162.0Z M444.6 187.6V94.3H478.1V127.4H527.9V94.3H561.4V187.6H527.9V153.0H478.1V187.6Z M569.8 187.6 614.9 94.3H651.8L697.0 187.6H661.1L655.5 175.3H609.8L604.4 187.6ZM620.0 152.1H645.3L638.8 136.3Q638.4 135.2 637.7 133.4Q637.1 131.6 636.2 129.3Q635.4 127.0 634.7 124.7Q633.9 122.4 633.3 120.5H632.3Q631.5 122.8 630.4 125.8Q629.3 128.7 628.3 131.6Q627.3 134.4 626.5 136.3Z M705.4 187.6V94.3H734.6L780.7 133.2Q781.5 133.9 783.0 135.2Q784.5 136.6 786.1 138.1Q787.7 139.6 789.1 140.8H790.4Q790.4 138.9 790.4 135.7Q790.4 132.5 790.4 129.6V94.3H821.9V187.6H793.0L749.2 150.8Q746.4 148.5 743.2 145.7Q740.0 142.8 738.1 141.1H736.9Q736.9 143.0 736.9 146.4Q736.9 149.9 736.9 153.4V187.6Z" fill="#f3effc"/>
<path d="M62.0 304.2V210.9H95.5V244.0H145.3V210.9H178.8V304.2H145.3V269.7H95.5V304.2Z M249.6 305.9Q237.5 305.9 227.0 304.4Q216.6 303.0 208.7 299.6Q200.9 296.1 196.4 289.9Q191.9 283.8 191.9 274.4Q191.9 274.1 191.9 273.7Q191.9 273.2 192.1 272.6H224.7Q224.6 273.2 224.6 273.7Q224.6 274.1 224.6 274.5Q224.6 278.6 227.3 280.8Q230.0 282.9 234.9 283.7Q239.8 284.4 246.2 284.4Q248.7 284.4 251.5 284.4Q254.3 284.3 257.0 284.0Q259.6 283.6 261.7 282.9Q263.8 282.3 265.1 281.1Q266.4 280.0 266.4 278.2Q266.4 275.8 263.3 274.4Q260.3 273.0 255.1 272.3Q249.8 271.6 243.4 270.9Q236.9 270.2 230.0 269.1Q223.1 268.0 216.7 266.1Q210.2 264.1 205.0 260.7Q199.8 257.3 196.7 252.0Q193.7 246.7 193.7 239.1Q193.7 231.0 198.0 225.3Q202.2 219.6 209.6 216.1Q216.9 212.6 226.4 210.9Q235.9 209.3 246.2 209.3Q256.7 209.3 266.0 210.9Q275.3 212.4 282.5 215.8Q289.6 219.2 293.6 224.7Q297.7 230.2 297.7 238.1V239.7H265.3V239.1Q265.3 236.4 263.5 234.3Q261.8 232.2 257.8 230.9Q253.9 229.6 247.5 229.6Q241.0 229.6 236.7 230.5Q232.3 231.3 230.2 232.7Q228.1 234.1 228.1 235.8Q228.1 238.2 231.2 239.5Q234.2 240.9 239.5 241.7Q244.7 242.4 251.1 243.1Q257.6 243.8 264.5 244.8Q271.4 245.8 277.8 247.6Q284.3 249.4 289.5 252.7Q294.7 256.0 297.8 261.0Q300.8 266.0 300.8 273.3Q300.8 284.8 294.1 292.0Q287.4 299.2 275.8 302.5Q264.2 305.9 249.6 305.9Z M370.0 305.9Q350.7 305.9 338.1 300.5Q325.5 295.2 319.3 284.8Q313.0 274.4 313.0 259.4V210.9H346.5V257.9Q346.5 269.5 352.7 276.0Q358.9 282.5 370.0 282.5Q381.3 282.5 387.4 276.0Q393.6 269.5 393.6 257.9V210.9H427.1V259.4Q427.1 274.4 420.9 284.8Q414.6 295.2 401.9 300.5Q389.3 305.9 370.0 305.9Z" fill="none" stroke="#ff2bd6" stroke-width="2.5" filter="url(#neon)"><animate attributeName="opacity" values="1;1;0.35;0.9;0.5;1;1" keyTimes="0;0.9;0.92;0.93;0.95;0.97;1" dur="7s" repeatCount="indefinite"/></path>
<path d="M476.5 235.2h1.4v1.4h-1.4zM474.9 236.8h1.4v1.4h-1.4zM478.1 236.8h1.4v1.4h-1.4zM473.3 238.4h1.4v1.4h-1.4zM479.7 238.4h1.4v1.4h-1.4zM473.3 240.0h1.4v1.4h-1.4zM479.7 240.0h1.4v1.4h-1.4zM473.3 241.6h1.4v1.4h-1.4zM474.9 241.6h1.4v1.4h-1.4zM476.5 241.6h1.4v1.4h-1.4zM478.1 241.6h1.4v1.4h-1.4zM479.7 241.6h1.4v1.4h-1.4zM473.3 243.2h1.4v1.4h-1.4zM479.7 243.2h1.4v1.4h-1.4zM473.3 244.8h1.4v1.4h-1.4zM479.7 244.8h1.4v1.4h-1.4zM484.5 235.2h1.4v1.4h-1.4zM490.9 235.2h1.4v1.4h-1.4zM484.5 236.8h1.4v1.4h-1.4zM489.3 236.8h1.4v1.4h-1.4zM484.5 238.4h1.4v1.4h-1.4zM487.7 238.4h1.4v1.4h-1.4zM484.5 240.0h1.4v1.4h-1.4zM486.1 240.0h1.4v1.4h-1.4zM484.5 241.6h1.4v1.4h-1.4zM487.7 241.6h1.4v1.4h-1.4zM484.5 243.2h1.4v1.4h-1.4zM489.3 243.2h1.4v1.4h-1.4zM484.5 244.8h1.4v1.4h-1.4zM490.9 244.8h1.4v1.4h-1.4zM498.9 235.2h1.4v1.4h-1.4zM497.3 236.8h1.4v1.4h-1.4zM500.5 236.8h1.4v1.4h-1.4zM495.7 238.4h1.4v1.4h-1.4zM502.1 238.4h1.4v1.4h-1.4zM495.7 240.0h1.4v1.4h-1.4zM502.1 240.0h1.4v1.4h-1.4zM495.7 241.6h1.4v1.4h-1.4zM497.3 241.6h1.4v1.4h-1.4zM498.9 241.6h1.4v1.4h-1.4zM500.5 241.6h1.4v1.4h-1.4zM502.1 241.6h1.4v1.4h-1.4zM495.7 243.2h1.4v1.4h-1.4zM502.1 243.2h1.4v1.4h-1.4zM495.7 244.8h1.4v1.4h-1.4zM502.1 244.8h1.4v1.4h-1.4zM521.3 235.2h1.4v1.4h-1.4zM522.9 235.2h1.4v1.4h-1.4zM524.5 235.2h1.4v1.4h-1.4zM522.9 236.8h1.4v1.4h-1.4zM522.9 238.4h1.4v1.4h-1.4zM522.9 240.0h1.4v1.4h-1.4zM522.9 241.6h1.4v1.4h-1.4zM518.1 243.2h1.4v1.4h-1.4zM522.9 243.2h1.4v1.4h-1.4zM519.7 244.8h1.4v1.4h-1.4zM521.3 244.8h1.4v1.4h-1.4zM529.3 235.2h1.4v1.4h-1.4zM530.9 235.2h1.4v1.4h-1.4zM532.5 235.2h1.4v1.4h-1.4zM534.1 235.2h1.4v1.4h-1.4zM535.7 235.2h1.4v1.4h-1.4zM529.3 236.8h1.4v1.4h-1.4zM529.3 238.4h1.4v1.4h-1.4zM529.3 240.0h1.4v1.4h-1.4zM530.9 240.0h1.4v1.4h-1.4zM532.5 240.0h1.4v1.4h-1.4zM534.1 240.0h1.4v1.4h-1.4zM529.3 241.6h1.4v1.4h-1.4zM529.3 243.2h1.4v1.4h-1.4zM529.3 244.8h1.4v1.4h-1.4zM530.9 244.8h1.4v1.4h-1.4zM532.5 244.8h1.4v1.4h-1.4zM534.1 244.8h1.4v1.4h-1.4zM535.7 244.8h1.4v1.4h-1.4zM540.5 235.2h1.4v1.4h-1.4zM542.1 235.2h1.4v1.4h-1.4zM543.7 235.2h1.4v1.4h-1.4zM545.3 235.2h1.4v1.4h-1.4zM540.5 236.8h1.4v1.4h-1.4zM546.9 236.8h1.4v1.4h-1.4zM540.5 238.4h1.4v1.4h-1.4zM546.9 238.4h1.4v1.4h-1.4zM540.5 240.0h1.4v1.4h-1.4zM542.1 240.0h1.4v1.4h-1.4zM543.7 240.0h1.4v1.4h-1.4zM545.3 240.0h1.4v1.4h-1.4zM540.5 241.6h1.4v1.4h-1.4zM543.7 241.6h1.4v1.4h-1.4zM540.5 243.2h1.4v1.4h-1.4zM545.3 243.2h1.4v1.4h-1.4zM540.5 244.8h1.4v1.4h-1.4zM546.9 244.8h1.4v1.4h-1.4zM551.7 235.2h1.4v1.4h-1.4zM553.3 235.2h1.4v1.4h-1.4zM554.9 235.2h1.4v1.4h-1.4zM556.5 235.2h1.4v1.4h-1.4zM551.7 236.8h1.4v1.4h-1.4zM558.1 236.8h1.4v1.4h-1.4zM551.7 238.4h1.4v1.4h-1.4zM558.1 238.4h1.4v1.4h-1.4zM551.7 240.0h1.4v1.4h-1.4zM553.3 240.0h1.4v1.4h-1.4zM554.9 240.0h1.4v1.4h-1.4zM556.5 240.0h1.4v1.4h-1.4zM551.7 241.6h1.4v1.4h-1.4zM554.9 241.6h1.4v1.4h-1.4zM551.7 243.2h1.4v1.4h-1.4zM556.5 243.2h1.4v1.4h-1.4zM551.7 244.8h1.4v1.4h-1.4zM558.1 244.8h1.4v1.4h-1.4zM562.9 235.2h1.4v1.4h-1.4zM569.3 235.2h1.4v1.4h-1.4zM562.9 236.8h1.4v1.4h-1.4zM569.3 236.8h1.4v1.4h-1.4zM564.5 238.4h1.4v1.4h-1.4zM567.7 238.4h1.4v1.4h-1.4zM566.1 240.0h1.4v1.4h-1.4zM566.1 241.6h1.4v1.4h-1.4zM566.1 243.2h1.4v1.4h-1.4zM566.1 244.8h1.4v1.4h-1.4z" fill="#928cb3"/>
<path d="M473.3 263.2h1.4v1.4h-1.4zM479.7 263.2h1.4v1.4h-1.4zM473.3 264.8h1.4v1.4h-1.4zM479.7 264.8h1.4v1.4h-1.4zM473.3 266.4h1.4v1.4h-1.4zM474.9 266.4h1.4v1.4h-1.4zM478.1 266.4h1.4v1.4h-1.4zM479.7 266.4h1.4v1.4h-1.4zM473.3 268.0h1.4v1.4h-1.4zM476.5 268.0h1.4v1.4h-1.4zM479.7 268.0h1.4v1.4h-1.4zM473.3 269.6h1.4v1.4h-1.4zM479.7 269.6h1.4v1.4h-1.4zM473.3 271.2h1.4v1.4h-1.4zM479.7 271.2h1.4v1.4h-1.4zM473.3 272.8h1.4v1.4h-1.4zM479.7 272.8h1.4v1.4h-1.4zM487.7 263.2h1.4v1.4h-1.4zM486.1 264.8h1.4v1.4h-1.4zM489.3 264.8h1.4v1.4h-1.4zM484.5 266.4h1.4v1.4h-1.4zM490.9 266.4h1.4v1.4h-1.4zM484.5 268.0h1.4v1.4h-1.4zM490.9 268.0h1.4v1.4h-1.4zM484.5 269.6h1.4v1.4h-1.4zM486.1 269.6h1.4v1.4h-1.4zM487.7 269.6h1.4v1.4h-1.4zM489.3 269.6h1.4v1.4h-1.4zM490.9 269.6h1.4v1.4h-1.4zM484.5 271.2h1.4v1.4h-1.4zM490.9 271.2h1.4v1.4h-1.4zM484.5 272.8h1.4v1.4h-1.4zM490.9 272.8h1.4v1.4h-1.4zM497.3 263.2h1.4v1.4h-1.4zM498.9 263.2h1.4v1.4h-1.4zM500.5 263.2h1.4v1.4h-1.4zM495.7 264.8h1.4v1.4h-1.4zM502.1 264.8h1.4v1.4h-1.4zM495.7 266.4h1.4v1.4h-1.4zM495.7 268.0h1.4v1.4h-1.4zM495.7 269.6h1.4v1.4h-1.4zM495.7 271.2h1.4v1.4h-1.4zM502.1 271.2h1.4v1.4h-1.4zM497.3 272.8h1.4v1.4h-1.4zM498.9 272.8h1.4v1.4h-1.4zM500.5 272.8h1.4v1.4h-1.4zM506.9 263.2h1.4v1.4h-1.4zM513.3 263.2h1.4v1.4h-1.4zM506.9 264.8h1.4v1.4h-1.4zM513.3 264.8h1.4v1.4h-1.4zM506.9 266.4h1.4v1.4h-1.4zM513.3 266.4h1.4v1.4h-1.4zM506.9 268.0h1.4v1.4h-1.4zM508.5 268.0h1.4v1.4h-1.4zM510.1 268.0h1.4v1.4h-1.4zM511.7 268.0h1.4v1.4h-1.4zM513.3 268.0h1.4v1.4h-1.4zM506.9 269.6h1.4v1.4h-1.4zM513.3 269.6h1.4v1.4h-1.4zM506.9 271.2h1.4v1.4h-1.4zM513.3 271.2h1.4v1.4h-1.4zM506.9 272.8h1.4v1.4h-1.4zM513.3 272.8h1.4v1.4h-1.4zM519.7 263.2h1.4v1.4h-1.4zM521.3 263.2h1.4v1.4h-1.4zM522.9 263.2h1.4v1.4h-1.4zM521.3 264.8h1.4v1.4h-1.4zM521.3 266.4h1.4v1.4h-1.4zM521.3 268.0h1.4v1.4h-1.4zM521.3 269.6h1.4v1.4h-1.4zM521.3 271.2h1.4v1.4h-1.4zM519.7 272.8h1.4v1.4h-1.4zM521.3 272.8h1.4v1.4h-1.4zM522.9 272.8h1.4v1.4h-1.4zM529.3 263.2h1.4v1.4h-1.4zM535.7 263.2h1.4v1.4h-1.4zM529.3 264.8h1.4v1.4h-1.4zM535.7 264.8h1.4v1.4h-1.4zM529.3 266.4h1.4v1.4h-1.4zM530.9 266.4h1.4v1.4h-1.4zM535.7 266.4h1.4v1.4h-1.4zM529.3 268.0h1.4v1.4h-1.4zM532.5 268.0h1.4v1.4h-1.4zM535.7 268.0h1.4v1.4h-1.4zM529.3 269.6h1.4v1.4h-1.4zM534.1 269.6h1.4v1.4h-1.4zM535.7 269.6h1.4v1.4h-1.4zM529.3 271.2h1.4v1.4h-1.4zM535.7 271.2h1.4v1.4h-1.4zM529.3 272.8h1.4v1.4h-1.4zM535.7 272.8h1.4v1.4h-1.4zM540.5 263.2h1.4v1.4h-1.4zM542.1 263.2h1.4v1.4h-1.4zM543.7 263.2h1.4v1.4h-1.4zM545.3 263.2h1.4v1.4h-1.4zM546.9 263.2h1.4v1.4h-1.4zM540.5 264.8h1.4v1.4h-1.4zM540.5 266.4h1.4v1.4h-1.4zM540.5 268.0h1.4v1.4h-1.4zM542.1 268.0h1.4v1.4h-1.4zM543.7 268.0h1.4v1.4h-1.4zM545.3 268.0h1.4v1.4h-1.4zM540.5 269.6h1.4v1.4h-1.4zM540.5 271.2h1.4v1.4h-1.4zM540.5 272.8h1.4v1.4h-1.4zM542.1 272.8h1.4v1.4h-1.4zM543.7 272.8h1.4v1.4h-1.4zM545.3 272.8h1.4v1.4h-1.4zM546.9 272.8h1.4v1.4h-1.4zM562.9 263.2h1.4v1.4h-1.4zM562.9 264.8h1.4v1.4h-1.4zM562.9 266.4h1.4v1.4h-1.4zM562.9 268.0h1.4v1.4h-1.4zM562.9 269.6h1.4v1.4h-1.4zM562.9 271.2h1.4v1.4h-1.4zM562.9 272.8h1.4v1.4h-1.4zM564.5 272.8h1.4v1.4h-1.4zM566.1 272.8h1.4v1.4h-1.4zM567.7 272.8h1.4v1.4h-1.4zM569.3 272.8h1.4v1.4h-1.4zM574.1 263.2h1.4v1.4h-1.4zM575.7 263.2h1.4v1.4h-1.4zM577.3 263.2h1.4v1.4h-1.4zM578.9 263.2h1.4v1.4h-1.4zM580.5 263.2h1.4v1.4h-1.4zM574.1 264.8h1.4v1.4h-1.4zM574.1 266.4h1.4v1.4h-1.4zM574.1 268.0h1.4v1.4h-1.4zM575.7 268.0h1.4v1.4h-1.4zM577.3 268.0h1.4v1.4h-1.4zM578.9 268.0h1.4v1.4h-1.4zM574.1 269.6h1.4v1.4h-1.4zM574.1 271.2h1.4v1.4h-1.4zM574.1 272.8h1.4v1.4h-1.4zM575.7 272.8h1.4v1.4h-1.4zM577.3 272.8h1.4v1.4h-1.4zM578.9 272.8h1.4v1.4h-1.4zM580.5 272.8h1.4v1.4h-1.4zM588.5 263.2h1.4v1.4h-1.4zM586.9 264.8h1.4v1.4h-1.4zM590.1 264.8h1.4v1.4h-1.4zM585.3 266.4h1.4v1.4h-1.4zM591.7 266.4h1.4v1.4h-1.4zM585.3 268.0h1.4v1.4h-1.4zM591.7 268.0h1.4v1.4h-1.4zM585.3 269.6h1.4v1.4h-1.4zM586.9 269.6h1.4v1.4h-1.4zM588.5 269.6h1.4v1.4h-1.4zM590.1 269.6h1.4v1.4h-1.4zM591.7 269.6h1.4v1.4h-1.4zM585.3 271.2h1.4v1.4h-1.4zM591.7 271.2h1.4v1.4h-1.4zM585.3 272.8h1.4v1.4h-1.4zM591.7 272.8h1.4v1.4h-1.4zM596.5 263.2h1.4v1.4h-1.4zM598.1 263.2h1.4v1.4h-1.4zM599.7 263.2h1.4v1.4h-1.4zM601.3 263.2h1.4v1.4h-1.4zM596.5 264.8h1.4v1.4h-1.4zM602.9 264.8h1.4v1.4h-1.4zM596.5 266.4h1.4v1.4h-1.4zM602.9 266.4h1.4v1.4h-1.4zM596.5 268.0h1.4v1.4h-1.4zM598.1 268.0h1.4v1.4h-1.4zM599.7 268.0h1.4v1.4h-1.4zM601.3 268.0h1.4v1.4h-1.4zM596.5 269.6h1.4v1.4h-1.4zM599.7 269.6h1.4v1.4h-1.4zM596.5 271.2h1.4v1.4h-1.4zM601.3 271.2h1.4v1.4h-1.4zM596.5 272.8h1.4v1.4h-1.4zM602.9 272.8h1.4v1.4h-1.4zM607.7 263.2h1.4v1.4h-1.4zM614.1 263.2h1.4v1.4h-1.4zM607.7 264.8h1.4v1.4h-1.4zM614.1 264.8h1.4v1.4h-1.4zM607.7 266.4h1.4v1.4h-1.4zM609.3 266.4h1.4v1.4h-1.4zM614.1 266.4h1.4v1.4h-1.4zM607.7 268.0h1.4v1.4h-1.4zM610.9 268.0h1.4v1.4h-1.4zM614.1 268.0h1.4v1.4h-1.4zM607.7 269.6h1.4v1.4h-1.4zM612.5 269.6h1.4v1.4h-1.4zM614.1 269.6h1.4v1.4h-1.4zM607.7 271.2h1.4v1.4h-1.4zM614.1 271.2h1.4v1.4h-1.4zM607.7 272.8h1.4v1.4h-1.4zM614.1 272.8h1.4v1.4h-1.4zM620.5 263.2h1.4v1.4h-1.4zM622.1 263.2h1.4v1.4h-1.4zM623.7 263.2h1.4v1.4h-1.4zM622.1 264.8h1.4v1.4h-1.4zM622.1 266.4h1.4v1.4h-1.4zM622.1 268.0h1.4v1.4h-1.4zM622.1 269.6h1.4v1.4h-1.4zM622.1 271.2h1.4v1.4h-1.4zM620.5 272.8h1.4v1.4h-1.4zM622.1 272.8h1.4v1.4h-1.4zM623.7 272.8h1.4v1.4h-1.4zM630.1 263.2h1.4v1.4h-1.4zM636.5 263.2h1.4v1.4h-1.4zM630.1 264.8h1.4v1.4h-1.4zM636.5 264.8h1.4v1.4h-1.4zM630.1 266.4h1.4v1.4h-1.4zM631.7 266.4h1.4v1.4h-1.4zM636.5 266.4h1.4v1.4h-1.4zM630.1 268.0h1.4v1.4h-1.4zM633.3 268.0h1.4v1.4h-1.4zM636.5 268.0h1.4v1.4h-1.4zM630.1 269.6h1.4v1.4h-1.4zM634.9 269.6h1.4v1.4h-1.4zM636.5 269.6h1.4v1.4h-1.4zM630.1 271.2h1.4v1.4h-1.4zM636.5 271.2h1.4v1.4h-1.4zM630.1 272.8h1.4v1.4h-1.4zM636.5 272.8h1.4v1.4h-1.4zM642.9 263.2h1.4v1.4h-1.4zM644.5 263.2h1.4v1.4h-1.4zM646.1 263.2h1.4v1.4h-1.4zM641.3 264.8h1.4v1.4h-1.4zM647.7 264.8h1.4v1.4h-1.4zM641.3 266.4h1.4v1.4h-1.4zM641.3 268.0h1.4v1.4h-1.4zM641.3 269.6h1.4v1.4h-1.4zM646.1 269.6h1.4v1.4h-1.4zM647.7 269.6h1.4v1.4h-1.4zM641.3 271.2h1.4v1.4h-1.4zM647.7 271.2h1.4v1.4h-1.4zM642.9 272.8h1.4v1.4h-1.4zM644.5 272.8h1.4v1.4h-1.4zM646.1 272.8h1.4v1.4h-1.4zM663.7 263.2h1.4v1.4h-1.4zM665.3 263.2h1.4v1.4h-1.4zM666.9 263.2h1.4v1.4h-1.4zM668.5 263.2h1.4v1.4h-1.4zM670.1 263.2h1.4v1.4h-1.4zM663.7 264.8h1.4v1.4h-1.4zM663.7 266.4h1.4v1.4h-1.4zM663.7 268.0h1.4v1.4h-1.4zM665.3 268.0h1.4v1.4h-1.4zM666.9 268.0h1.4v1.4h-1.4zM668.5 268.0h1.4v1.4h-1.4zM663.7 269.6h1.4v1.4h-1.4zM663.7 271.2h1.4v1.4h-1.4zM663.7 272.8h1.4v1.4h-1.4zM676.5 263.2h1.4v1.4h-1.4zM678.1 263.2h1.4v1.4h-1.4zM679.7 263.2h1.4v1.4h-1.4zM674.9 264.8h1.4v1.4h-1.4zM681.3 264.8h1.4v1.4h-1.4zM674.9 266.4h1.4v1.4h-1.4zM681.3 266.4h1.4v1.4h-1.4zM674.9 268.0h1.4v1.4h-1.4zM681.3 268.0h1.4v1.4h-1.4zM674.9 269.6h1.4v1.4h-1.4zM681.3 269.6h1.4v1.4h-1.4zM674.9 271.2h1.4v1.4h-1.4zM681.3 271.2h1.4v1.4h-1.4zM676.5 272.8h1.4v1.4h-1.4zM678.1 272.8h1.4v1.4h-1.4zM679.7 272.8h1.4v1.4h-1.4zM686.1 263.2h1.4v1.4h-1.4zM687.7 263.2h1.4v1.4h-1.4zM689.3 263.2h1.4v1.4h-1.4zM690.9 263.2h1.4v1.4h-1.4zM686.1 264.8h1.4v1.4h-1.4zM692.5 264.8h1.4v1.4h-1.4zM686.1 266.4h1.4v1.4h-1.4zM692.5 266.4h1.4v1.4h-1.4zM686.1 268.0h1.4v1.4h-1.4zM687.7 268.0h1.4v1.4h-1.4zM689.3 268.0h1.4v1.4h-1.4zM690.9 268.0h1.4v1.4h-1.4zM686.1 269.6h1.4v1.4h-1.4zM689.3 269.6h1.4v1.4h-1.4zM686.1 271.2h1.4v1.4h-1.4zM690.9 271.2h1.4v1.4h-1.4zM686.1 272.8h1.4v1.4h-1.4zM692.5 272.8h1.4v1.4h-1.4zM708.5 263.2h1.4v1.4h-1.4zM714.9 263.2h1.4v1.4h-1.4zM708.5 264.8h1.4v1.4h-1.4zM714.9 264.8h1.4v1.4h-1.4zM708.5 266.4h1.4v1.4h-1.4zM710.1 266.4h1.4v1.4h-1.4zM713.3 266.4h1.4v1.4h-1.4zM714.9 266.4h1.4v1.4h-1.4zM708.5 268.0h1.4v1.4h-1.4zM711.7 268.0h1.4v1.4h-1.4zM714.9 268.0h1.4v1.4h-1.4zM708.5 269.6h1.4v1.4h-1.4zM714.9 269.6h1.4v1.4h-1.4zM708.5 271.2h1.4v1.4h-1.4zM714.9 271.2h1.4v1.4h-1.4zM708.5 272.8h1.4v1.4h-1.4zM714.9 272.8h1.4v1.4h-1.4zM719.7 263.2h1.4v1.4h-1.4zM726.1 263.2h1.4v1.4h-1.4zM719.7 264.8h1.4v1.4h-1.4zM726.1 264.8h1.4v1.4h-1.4zM719.7 266.4h1.4v1.4h-1.4zM726.1 266.4h1.4v1.4h-1.4zM719.7 268.0h1.4v1.4h-1.4zM726.1 268.0h1.4v1.4h-1.4zM719.7 269.6h1.4v1.4h-1.4zM726.1 269.6h1.4v1.4h-1.4zM719.7 271.2h1.4v1.4h-1.4zM726.1 271.2h1.4v1.4h-1.4zM721.3 272.8h1.4v1.4h-1.4zM722.9 272.8h1.4v1.4h-1.4zM724.5 272.8h1.4v1.4h-1.4zM732.5 263.2h1.4v1.4h-1.4zM734.1 263.2h1.4v1.4h-1.4zM735.7 263.2h1.4v1.4h-1.4zM730.9 264.8h1.4v1.4h-1.4zM737.3 264.8h1.4v1.4h-1.4zM730.9 266.4h1.4v1.4h-1.4zM732.5 268.0h1.4v1.4h-1.4zM734.1 268.0h1.4v1.4h-1.4zM735.7 268.0h1.4v1.4h-1.4zM737.3 269.6h1.4v1.4h-1.4zM730.9 271.2h1.4v1.4h-1.4zM737.3 271.2h1.4v1.4h-1.4zM732.5 272.8h1.4v1.4h-1.4zM734.1 272.8h1.4v1.4h-1.4zM735.7 272.8h1.4v1.4h-1.4zM743.7 263.2h1.4v1.4h-1.4zM745.3 263.2h1.4v1.4h-1.4zM746.9 263.2h1.4v1.4h-1.4zM745.3 264.8h1.4v1.4h-1.4zM745.3 266.4h1.4v1.4h-1.4zM745.3 268.0h1.4v1.4h-1.4zM745.3 269.6h1.4v1.4h-1.4zM745.3 271.2h1.4v1.4h-1.4zM743.7 272.8h1.4v1.4h-1.4zM745.3 272.8h1.4v1.4h-1.4zM746.9 272.8h1.4v1.4h-1.4zM754.9 263.2h1.4v1.4h-1.4zM756.5 263.2h1.4v1.4h-1.4zM758.1 263.2h1.4v1.4h-1.4zM753.3 264.8h1.4v1.4h-1.4zM759.7 264.8h1.4v1.4h-1.4zM753.3 266.4h1.4v1.4h-1.4zM753.3 268.0h1.4v1.4h-1.4zM753.3 269.6h1.4v1.4h-1.4zM753.3 271.2h1.4v1.4h-1.4zM759.7 271.2h1.4v1.4h-1.4zM754.9 272.8h1.4v1.4h-1.4zM756.5 272.8h1.4v1.4h-1.4zM758.1 272.8h1.4v1.4h-1.4z" fill="#f3effc"/>
<path d="M473.3 289.2h1.4v1.4h-1.4zM474.9 289.2h1.4v1.4h-1.4zM476.5 289.2h1.4v1.4h-1.4zM478.1 289.2h1.4v1.4h-1.4zM474.9 290.8h1.4v1.4h-1.4zM479.7 290.8h1.4v1.4h-1.4zM474.9 292.4h1.4v1.4h-1.4zM479.7 292.4h1.4v1.4h-1.4zM474.9 294.0h1.4v1.4h-1.4zM479.7 294.0h1.4v1.4h-1.4zM474.9 295.6h1.4v1.4h-1.4zM479.7 295.6h1.4v1.4h-1.4zM474.9 297.2h1.4v1.4h-1.4zM479.7 297.2h1.4v1.4h-1.4zM473.3 298.8h1.4v1.4h-1.4zM474.9 298.8h1.4v1.4h-1.4zM476.5 298.8h1.4v1.4h-1.4zM478.1 298.8h1.4v1.4h-1.4zM487.7 289.2h1.4v1.4h-1.4zM489.3 289.2h1.4v1.4h-1.4zM490.9 289.2h1.4v1.4h-1.4zM489.3 290.8h1.4v1.4h-1.4zM489.3 292.4h1.4v1.4h-1.4zM489.3 294.0h1.4v1.4h-1.4zM489.3 295.6h1.4v1.4h-1.4zM484.5 297.2h1.4v1.4h-1.4zM489.3 297.2h1.4v1.4h-1.4zM486.1 298.8h1.4v1.4h-1.4zM487.7 298.8h1.4v1.4h-1.4zM508.5 289.2h1.4v1.4h-1.4zM510.1 289.2h1.4v1.4h-1.4zM511.7 289.2h1.4v1.4h-1.4zM506.9 290.8h1.4v1.4h-1.4zM513.3 290.8h1.4v1.4h-1.4zM506.9 292.4h1.4v1.4h-1.4zM508.5 294.0h1.4v1.4h-1.4zM510.1 294.0h1.4v1.4h-1.4zM511.7 294.0h1.4v1.4h-1.4zM513.3 295.6h1.4v1.4h-1.4zM506.9 297.2h1.4v1.4h-1.4zM513.3 297.2h1.4v1.4h-1.4zM508.5 298.8h1.4v1.4h-1.4zM510.1 298.8h1.4v1.4h-1.4zM511.7 298.8h1.4v1.4h-1.4zM518.1 289.2h1.4v1.4h-1.4zM524.5 289.2h1.4v1.4h-1.4zM518.1 290.8h1.4v1.4h-1.4zM524.5 290.8h1.4v1.4h-1.4zM519.7 292.4h1.4v1.4h-1.4zM522.9 292.4h1.4v1.4h-1.4zM521.3 294.0h1.4v1.4h-1.4zM521.3 295.6h1.4v1.4h-1.4zM521.3 297.2h1.4v1.4h-1.4zM521.3 298.8h1.4v1.4h-1.4zM530.9 289.2h1.4v1.4h-1.4zM532.5 289.2h1.4v1.4h-1.4zM534.1 289.2h1.4v1.4h-1.4zM529.3 290.8h1.4v1.4h-1.4zM535.7 290.8h1.4v1.4h-1.4zM529.3 292.4h1.4v1.4h-1.4zM530.9 294.0h1.4v1.4h-1.4zM532.5 294.0h1.4v1.4h-1.4zM534.1 294.0h1.4v1.4h-1.4zM535.7 295.6h1.4v1.4h-1.4zM529.3 297.2h1.4v1.4h-1.4zM535.7 297.2h1.4v1.4h-1.4zM530.9 298.8h1.4v1.4h-1.4zM532.5 298.8h1.4v1.4h-1.4zM534.1 298.8h1.4v1.4h-1.4zM540.5 289.2h1.4v1.4h-1.4zM542.1 289.2h1.4v1.4h-1.4zM543.7 289.2h1.4v1.4h-1.4zM545.3 289.2h1.4v1.4h-1.4zM546.9 289.2h1.4v1.4h-1.4zM543.7 290.8h1.4v1.4h-1.4zM543.7 292.4h1.4v1.4h-1.4zM543.7 294.0h1.4v1.4h-1.4zM543.7 295.6h1.4v1.4h-1.4zM543.7 297.2h1.4v1.4h-1.4zM543.7 298.8h1.4v1.4h-1.4zM551.7 289.2h1.4v1.4h-1.4zM553.3 289.2h1.4v1.4h-1.4zM554.9 289.2h1.4v1.4h-1.4zM556.5 289.2h1.4v1.4h-1.4zM558.1 289.2h1.4v1.4h-1.4zM551.7 290.8h1.4v1.4h-1.4zM551.7 292.4h1.4v1.4h-1.4zM551.7 294.0h1.4v1.4h-1.4zM553.3 294.0h1.4v1.4h-1.4zM554.9 294.0h1.4v1.4h-1.4zM556.5 294.0h1.4v1.4h-1.4zM551.7 295.6h1.4v1.4h-1.4zM551.7 297.2h1.4v1.4h-1.4zM551.7 298.8h1.4v1.4h-1.4zM553.3 298.8h1.4v1.4h-1.4zM554.9 298.8h1.4v1.4h-1.4zM556.5 298.8h1.4v1.4h-1.4zM558.1 298.8h1.4v1.4h-1.4zM562.9 289.2h1.4v1.4h-1.4zM569.3 289.2h1.4v1.4h-1.4zM562.9 290.8h1.4v1.4h-1.4zM569.3 290.8h1.4v1.4h-1.4zM562.9 292.4h1.4v1.4h-1.4zM564.5 292.4h1.4v1.4h-1.4zM567.7 292.4h1.4v1.4h-1.4zM569.3 292.4h1.4v1.4h-1.4zM562.9 294.0h1.4v1.4h-1.4zM566.1 294.0h1.4v1.4h-1.4zM569.3 294.0h1.4v1.4h-1.4zM562.9 295.6h1.4v1.4h-1.4zM569.3 295.6h1.4v1.4h-1.4zM562.9 297.2h1.4v1.4h-1.4zM569.3 297.2h1.4v1.4h-1.4zM562.9 298.8h1.4v1.4h-1.4zM569.3 298.8h1.4v1.4h-1.4zM575.7 289.2h1.4v1.4h-1.4zM577.3 289.2h1.4v1.4h-1.4zM578.9 289.2h1.4v1.4h-1.4zM574.1 290.8h1.4v1.4h-1.4zM580.5 290.8h1.4v1.4h-1.4zM574.1 292.4h1.4v1.4h-1.4zM575.7 294.0h1.4v1.4h-1.4zM577.3 294.0h1.4v1.4h-1.4zM578.9 294.0h1.4v1.4h-1.4zM580.5 295.6h1.4v1.4h-1.4zM574.1 297.2h1.4v1.4h-1.4zM580.5 297.2h1.4v1.4h-1.4zM575.7 298.8h1.4v1.4h-1.4zM577.3 298.8h1.4v1.4h-1.4zM578.9 298.8h1.4v1.4h-1.4zM602.9 289.2h1.4v1.4h-1.4zM602.9 290.8h1.4v1.4h-1.4zM601.3 292.4h1.4v1.4h-1.4zM599.7 294.0h1.4v1.4h-1.4zM598.1 295.6h1.4v1.4h-1.4zM596.5 297.2h1.4v1.4h-1.4zM596.5 298.8h1.4v1.4h-1.4zM620.5 289.2h1.4v1.4h-1.4zM622.1 289.2h1.4v1.4h-1.4zM623.7 289.2h1.4v1.4h-1.4zM618.9 290.8h1.4v1.4h-1.4zM625.3 290.8h1.4v1.4h-1.4zM618.9 292.4h1.4v1.4h-1.4zM618.9 294.0h1.4v1.4h-1.4zM618.9 295.6h1.4v1.4h-1.4zM623.7 295.6h1.4v1.4h-1.4zM625.3 295.6h1.4v1.4h-1.4zM618.9 297.2h1.4v1.4h-1.4zM625.3 297.2h1.4v1.4h-1.4zM620.5 298.8h1.4v1.4h-1.4zM622.1 298.8h1.4v1.4h-1.4zM623.7 298.8h1.4v1.4h-1.4zM630.1 289.2h1.4v1.4h-1.4zM631.7 289.2h1.4v1.4h-1.4zM633.3 289.2h1.4v1.4h-1.4zM634.9 289.2h1.4v1.4h-1.4zM636.5 289.2h1.4v1.4h-1.4zM630.1 290.8h1.4v1.4h-1.4zM630.1 292.4h1.4v1.4h-1.4zM630.1 294.0h1.4v1.4h-1.4zM631.7 294.0h1.4v1.4h-1.4zM633.3 294.0h1.4v1.4h-1.4zM634.9 294.0h1.4v1.4h-1.4zM630.1 295.6h1.4v1.4h-1.4zM630.1 297.2h1.4v1.4h-1.4zM630.1 298.8h1.4v1.4h-1.4zM631.7 298.8h1.4v1.4h-1.4zM633.3 298.8h1.4v1.4h-1.4zM634.9 298.8h1.4v1.4h-1.4zM636.5 298.8h1.4v1.4h-1.4zM641.3 289.2h1.4v1.4h-1.4zM647.7 289.2h1.4v1.4h-1.4zM641.3 290.8h1.4v1.4h-1.4zM647.7 290.8h1.4v1.4h-1.4zM641.3 292.4h1.4v1.4h-1.4zM642.9 292.4h1.4v1.4h-1.4zM647.7 292.4h1.4v1.4h-1.4zM641.3 294.0h1.4v1.4h-1.4zM644.5 294.0h1.4v1.4h-1.4zM647.7 294.0h1.4v1.4h-1.4zM641.3 295.6h1.4v1.4h-1.4zM646.1 295.6h1.4v1.4h-1.4zM647.7 295.6h1.4v1.4h-1.4zM641.3 297.2h1.4v1.4h-1.4zM647.7 297.2h1.4v1.4h-1.4zM641.3 298.8h1.4v1.4h-1.4zM647.7 298.8h1.4v1.4h-1.4zM652.5 289.2h1.4v1.4h-1.4zM654.1 289.2h1.4v1.4h-1.4zM655.7 289.2h1.4v1.4h-1.4zM657.3 289.2h1.4v1.4h-1.4zM658.9 289.2h1.4v1.4h-1.4zM652.5 290.8h1.4v1.4h-1.4zM652.5 292.4h1.4v1.4h-1.4zM652.5 294.0h1.4v1.4h-1.4zM654.1 294.0h1.4v1.4h-1.4zM655.7 294.0h1.4v1.4h-1.4zM657.3 294.0h1.4v1.4h-1.4zM652.5 295.6h1.4v1.4h-1.4zM652.5 297.2h1.4v1.4h-1.4zM652.5 298.8h1.4v1.4h-1.4zM654.1 298.8h1.4v1.4h-1.4zM655.7 298.8h1.4v1.4h-1.4zM657.3 298.8h1.4v1.4h-1.4zM658.9 298.8h1.4v1.4h-1.4zM663.7 289.2h1.4v1.4h-1.4zM665.3 289.2h1.4v1.4h-1.4zM666.9 289.2h1.4v1.4h-1.4zM668.5 289.2h1.4v1.4h-1.4zM663.7 290.8h1.4v1.4h-1.4zM670.1 290.8h1.4v1.4h-1.4zM663.7 292.4h1.4v1.4h-1.4zM670.1 292.4h1.4v1.4h-1.4zM663.7 294.0h1.4v1.4h-1.4zM665.3 294.0h1.4v1.4h-1.4zM666.9 294.0h1.4v1.4h-1.4zM668.5 294.0h1.4v1.4h-1.4zM663.7 295.6h1.4v1.4h-1.4zM666.9 295.6h1.4v1.4h-1.4zM663.7 297.2h1.4v1.4h-1.4zM668.5 297.2h1.4v1.4h-1.4zM663.7 298.8h1.4v1.4h-1.4zM670.1 298.8h1.4v1.4h-1.4zM678.1 289.2h1.4v1.4h-1.4zM676.5 290.8h1.4v1.4h-1.4zM679.7 290.8h1.4v1.4h-1.4zM674.9 292.4h1.4v1.4h-1.4zM681.3 292.4h1.4v1.4h-1.4zM674.9 294.0h1.4v1.4h-1.4zM681.3 294.0h1.4v1.4h-1.4zM674.9 295.6h1.4v1.4h-1.4zM676.5 295.6h1.4v1.4h-1.4zM678.1 295.6h1.4v1.4h-1.4zM679.7 295.6h1.4v1.4h-1.4zM681.3 295.6h1.4v1.4h-1.4zM674.9 297.2h1.4v1.4h-1.4zM681.3 297.2h1.4v1.4h-1.4zM674.9 298.8h1.4v1.4h-1.4zM681.3 298.8h1.4v1.4h-1.4zM686.1 289.2h1.4v1.4h-1.4zM687.7 289.2h1.4v1.4h-1.4zM689.3 289.2h1.4v1.4h-1.4zM690.9 289.2h1.4v1.4h-1.4zM692.5 289.2h1.4v1.4h-1.4zM689.3 290.8h1.4v1.4h-1.4zM689.3 292.4h1.4v1.4h-1.4zM689.3 294.0h1.4v1.4h-1.4zM689.3 295.6h1.4v1.4h-1.4zM689.3 297.2h1.4v1.4h-1.4zM689.3 298.8h1.4v1.4h-1.4zM698.9 289.2h1.4v1.4h-1.4zM700.5 289.2h1.4v1.4h-1.4zM702.1 289.2h1.4v1.4h-1.4zM700.5 290.8h1.4v1.4h-1.4zM700.5 292.4h1.4v1.4h-1.4zM700.5 294.0h1.4v1.4h-1.4zM700.5 295.6h1.4v1.4h-1.4zM700.5 297.2h1.4v1.4h-1.4zM698.9 298.8h1.4v1.4h-1.4zM700.5 298.8h1.4v1.4h-1.4zM702.1 298.8h1.4v1.4h-1.4zM710.1 289.2h1.4v1.4h-1.4zM711.7 289.2h1.4v1.4h-1.4zM713.3 289.2h1.4v1.4h-1.4zM708.5 290.8h1.4v1.4h-1.4zM714.9 290.8h1.4v1.4h-1.4zM708.5 292.4h1.4v1.4h-1.4zM714.9 292.4h1.4v1.4h-1.4zM708.5 294.0h1.4v1.4h-1.4zM714.9 294.0h1.4v1.4h-1.4zM708.5 295.6h1.4v1.4h-1.4zM714.9 295.6h1.4v1.4h-1.4zM708.5 297.2h1.4v1.4h-1.4zM714.9 297.2h1.4v1.4h-1.4zM710.1 298.8h1.4v1.4h-1.4zM711.7 298.8h1.4v1.4h-1.4zM713.3 298.8h1.4v1.4h-1.4zM719.7 289.2h1.4v1.4h-1.4zM726.1 289.2h1.4v1.4h-1.4zM719.7 290.8h1.4v1.4h-1.4zM726.1 290.8h1.4v1.4h-1.4zM719.7 292.4h1.4v1.4h-1.4zM721.3 292.4h1.4v1.4h-1.4zM726.1 292.4h1.4v1.4h-1.4zM719.7 294.0h1.4v1.4h-1.4zM722.9 294.0h1.4v1.4h-1.4zM726.1 294.0h1.4v1.4h-1.4zM719.7 295.6h1.4v1.4h-1.4zM724.5 295.6h1.4v1.4h-1.4zM726.1 295.6h1.4v1.4h-1.4zM719.7 297.2h1.4v1.4h-1.4zM726.1 297.2h1.4v1.4h-1.4zM719.7 298.8h1.4v1.4h-1.4zM726.1 298.8h1.4v1.4h-1.4zM748.5 289.2h1.4v1.4h-1.4zM748.5 290.8h1.4v1.4h-1.4zM746.9 292.4h1.4v1.4h-1.4zM745.3 294.0h1.4v1.4h-1.4zM743.7 295.6h1.4v1.4h-1.4zM742.1 297.2h1.4v1.4h-1.4zM742.1 298.8h1.4v1.4h-1.4zM764.5 289.2h1.4v1.4h-1.4zM766.1 289.2h1.4v1.4h-1.4zM767.7 289.2h1.4v1.4h-1.4zM769.3 289.2h1.4v1.4h-1.4zM770.9 289.2h1.4v1.4h-1.4zM767.7 290.8h1.4v1.4h-1.4zM767.7 292.4h1.4v1.4h-1.4zM767.7 294.0h1.4v1.4h-1.4zM767.7 295.6h1.4v1.4h-1.4zM767.7 297.2h1.4v1.4h-1.4zM767.7 298.8h1.4v1.4h-1.4zM775.7 289.2h1.4v1.4h-1.4zM777.3 289.2h1.4v1.4h-1.4zM778.9 289.2h1.4v1.4h-1.4zM780.5 289.2h1.4v1.4h-1.4zM775.7 290.8h1.4v1.4h-1.4zM782.1 290.8h1.4v1.4h-1.4zM775.7 292.4h1.4v1.4h-1.4zM782.1 292.4h1.4v1.4h-1.4zM775.7 294.0h1.4v1.4h-1.4zM777.3 294.0h1.4v1.4h-1.4zM778.9 294.0h1.4v1.4h-1.4zM780.5 294.0h1.4v1.4h-1.4zM775.7 295.6h1.4v1.4h-1.4zM778.9 295.6h1.4v1.4h-1.4zM775.7 297.2h1.4v1.4h-1.4zM780.5 297.2h1.4v1.4h-1.4zM775.7 298.8h1.4v1.4h-1.4zM782.1 298.8h1.4v1.4h-1.4zM790.1 289.2h1.4v1.4h-1.4zM788.5 290.8h1.4v1.4h-1.4zM791.7 290.8h1.4v1.4h-1.4zM786.9 292.4h1.4v1.4h-1.4zM793.3 292.4h1.4v1.4h-1.4zM786.9 294.0h1.4v1.4h-1.4zM793.3 294.0h1.4v1.4h-1.4zM786.9 295.6h1.4v1.4h-1.4zM788.5 295.6h1.4v1.4h-1.4zM790.1 295.6h1.4v1.4h-1.4zM791.7 295.6h1.4v1.4h-1.4zM793.3 295.6h1.4v1.4h-1.4zM786.9 297.2h1.4v1.4h-1.4zM793.3 297.2h1.4v1.4h-1.4zM786.9 298.8h1.4v1.4h-1.4zM793.3 298.8h1.4v1.4h-1.4zM798.1 289.2h1.4v1.4h-1.4zM804.5 289.2h1.4v1.4h-1.4zM798.1 290.8h1.4v1.4h-1.4zM804.5 290.8h1.4v1.4h-1.4zM798.1 292.4h1.4v1.4h-1.4zM799.7 292.4h1.4v1.4h-1.4zM804.5 292.4h1.4v1.4h-1.4zM798.1 294.0h1.4v1.4h-1.4zM801.3 294.0h1.4v1.4h-1.4zM804.5 294.0h1.4v1.4h-1.4zM798.1 295.6h1.4v1.4h-1.4zM802.9 295.6h1.4v1.4h-1.4zM804.5 295.6h1.4v1.4h-1.4zM798.1 297.2h1.4v1.4h-1.4zM804.5 297.2h1.4v1.4h-1.4zM798.1 298.8h1.4v1.4h-1.4zM804.5 298.8h1.4v1.4h-1.4zM810.9 289.2h1.4v1.4h-1.4zM812.5 289.2h1.4v1.4h-1.4zM814.1 289.2h1.4v1.4h-1.4zM809.3 290.8h1.4v1.4h-1.4zM815.7 290.8h1.4v1.4h-1.4zM809.3 292.4h1.4v1.4h-1.4zM810.9 294.0h1.4v1.4h-1.4zM812.5 294.0h1.4v1.4h-1.4zM814.1 294.0h1.4v1.4h-1.4zM815.7 295.6h1.4v1.4h-1.4zM809.3 297.2h1.4v1.4h-1.4zM815.7 297.2h1.4v1.4h-1.4zM810.9 298.8h1.4v1.4h-1.4zM812.5 298.8h1.4v1.4h-1.4zM814.1 298.8h1.4v1.4h-1.4zM822.1 289.2h1.4v1.4h-1.4zM823.7 289.2h1.4v1.4h-1.4zM825.3 289.2h1.4v1.4h-1.4zM820.5 290.8h1.4v1.4h-1.4zM826.9 290.8h1.4v1.4h-1.4zM820.5 292.4h1.4v1.4h-1.4zM820.5 294.0h1.4v1.4h-1.4zM820.5 295.6h1.4v1.4h-1.4zM820.5 297.2h1.4v1.4h-1.4zM826.9 297.2h1.4v1.4h-1.4zM822.1 298.8h1.4v1.4h-1.4zM823.7 298.8h1.4v1.4h-1.4zM825.3 298.8h1.4v1.4h-1.4zM831.7 289.2h1.4v1.4h-1.4zM833.3 289.2h1.4v1.4h-1.4zM834.9 289.2h1.4v1.4h-1.4zM836.5 289.2h1.4v1.4h-1.4zM831.7 290.8h1.4v1.4h-1.4zM838.1 290.8h1.4v1.4h-1.4zM831.7 292.4h1.4v1.4h-1.4zM838.1 292.4h1.4v1.4h-1.4zM831.7 294.0h1.4v1.4h-1.4zM833.3 294.0h1.4v1.4h-1.4zM834.9 294.0h1.4v1.4h-1.4zM836.5 294.0h1.4v1.4h-1.4zM831.7 295.6h1.4v1.4h-1.4zM834.9 295.6h1.4v1.4h-1.4zM831.7 297.2h1.4v1.4h-1.4zM836.5 297.2h1.4v1.4h-1.4zM831.7 298.8h1.4v1.4h-1.4zM838.1 298.8h1.4v1.4h-1.4zM844.5 289.2h1.4v1.4h-1.4zM846.1 289.2h1.4v1.4h-1.4zM847.7 289.2h1.4v1.4h-1.4zM846.1 290.8h1.4v1.4h-1.4zM846.1 292.4h1.4v1.4h-1.4zM846.1 294.0h1.4v1.4h-1.4zM846.1 295.6h1.4v1.4h-1.4zM846.1 297.2h1.4v1.4h-1.4zM844.5 298.8h1.4v1.4h-1.4zM846.1 298.8h1.4v1.4h-1.4zM847.7 298.8h1.4v1.4h-1.4zM854.1 289.2h1.4v1.4h-1.4zM855.7 289.2h1.4v1.4h-1.4zM857.3 289.2h1.4v1.4h-1.4zM858.9 289.2h1.4v1.4h-1.4zM854.1 290.8h1.4v1.4h-1.4zM860.5 290.8h1.4v1.4h-1.4zM854.1 292.4h1.4v1.4h-1.4zM860.5 292.4h1.4v1.4h-1.4zM854.1 294.0h1.4v1.4h-1.4zM855.7 294.0h1.4v1.4h-1.4zM857.3 294.0h1.4v1.4h-1.4zM858.9 294.0h1.4v1.4h-1.4zM854.1 295.6h1.4v1.4h-1.4zM854.1 297.2h1.4v1.4h-1.4zM854.1 298.8h1.4v1.4h-1.4zM865.3 289.2h1.4v1.4h-1.4zM866.9 289.2h1.4v1.4h-1.4zM868.5 289.2h1.4v1.4h-1.4zM870.1 289.2h1.4v1.4h-1.4zM871.7 289.2h1.4v1.4h-1.4zM868.5 290.8h1.4v1.4h-1.4zM868.5 292.4h1.4v1.4h-1.4zM868.5 294.0h1.4v1.4h-1.4zM868.5 295.6h1.4v1.4h-1.4zM868.5 297.2h1.4v1.4h-1.4zM868.5 298.8h1.4v1.4h-1.4zM878.1 289.2h1.4v1.4h-1.4zM879.7 289.2h1.4v1.4h-1.4zM881.3 289.2h1.4v1.4h-1.4zM879.7 290.8h1.4v1.4h-1.4zM879.7 292.4h1.4v1.4h-1.4zM879.7 294.0h1.4v1.4h-1.4zM879.7 295.6h1.4v1.4h-1.4zM879.7 297.2h1.4v1.4h-1.4zM878.1 298.8h1.4v1.4h-1.4zM879.7 298.8h1.4v1.4h-1.4zM881.3 298.8h1.4v1.4h-1.4zM889.3 289.2h1.4v1.4h-1.4zM890.9 289.2h1.4v1.4h-1.4zM892.5 289.2h1.4v1.4h-1.4zM887.7 290.8h1.4v1.4h-1.4zM894.1 290.8h1.4v1.4h-1.4zM887.7 292.4h1.4v1.4h-1.4zM894.1 292.4h1.4v1.4h-1.4zM887.7 294.0h1.4v1.4h-1.4zM894.1 294.0h1.4v1.4h-1.4zM887.7 295.6h1.4v1.4h-1.4zM894.1 295.6h1.4v1.4h-1.4zM887.7 297.2h1.4v1.4h-1.4zM894.1 297.2h1.4v1.4h-1.4zM889.3 298.8h1.4v1.4h-1.4zM890.9 298.8h1.4v1.4h-1.4zM892.5 298.8h1.4v1.4h-1.4zM898.9 289.2h1.4v1.4h-1.4zM905.3 289.2h1.4v1.4h-1.4zM898.9 290.8h1.4v1.4h-1.4zM905.3 290.8h1.4v1.4h-1.4zM898.9 292.4h1.4v1.4h-1.4zM900.5 292.4h1.4v1.4h-1.4zM905.3 292.4h1.4v1.4h-1.4zM898.9 294.0h1.4v1.4h-1.4zM902.1 294.0h1.4v1.4h-1.4zM905.3 294.0h1.4v1.4h-1.4zM898.9 295.6h1.4v1.4h-1.4zM903.7 295.6h1.4v1.4h-1.4zM905.3 295.6h1.4v1.4h-1.4zM898.9 297.2h1.4v1.4h-1.4zM905.3 297.2h1.4v1.4h-1.4zM898.9 298.8h1.4v1.4h-1.4zM905.3 298.8h1.4v1.4h-1.4z" fill="#f3effc"/>
<g filter="url(#neon)">
<rect x="56.0" y="365.5" width="12.1" height="66.5" fill="url(#bar)" opacity="0.85"><animate attributeName="height" values="66.5;28.4;54.1;18.5;55.0;28.2;52.4;18.1;66.5" dur="1.935s" repeatCount="indefinite"/><animate attributeName="y" values="365.5;403.6;377.9;413.5;377.0;403.8;379.6;413.9;365.5" dur="1.935s" repeatCount="indefinite"/></rect>
<rect x="71.1" y="368.5" width="12.1" height="63.5" fill="url(#bar)" opacity="0.85"><animate attributeName="height" values="63.5;28.8;51.7;25.1;48.6;36.4;57.3;20.9;63.5" dur="1.935s" repeatCount="indefinite"/><animate attributeName="y" values="368.5;403.2;380.3;406.9;383.4;395.6;374.7;411.1;368.5" dur="1.935s" repeatCount="indefinite"/></rect>
<rect x="86.2" y="365.6" width="12.1" height="66.4" fill="url(#bar)" opacity="0.85"><animate attributeName="height" values="66.4;35.8;31.8;27.1;57.5;39.3;47.7;17.2;66.4" dur="1.935s" repeatCount="indefinite"/><animate attributeName="y" values="365.6;396.2;400.2;404.9;374.5;392.7;384.3;414.8;365.6" dur="1.935s" repeatCount="indefinite"/></rect>
<rect x="101.3" y="381.9" width="12.1" height="50.1" fill="url(#bar)" opacity="0.85"><animate attributeName="height" values="50.1;27.5;40.1;32.8;45.2;24.6;43.3;24.7;50.1" dur="1.935s" repeatCount="indefinite"/><animate attributeName="y" values="381.9;404.5;391.9;399.2;386.8;407.4;388.7;407.3;381.9" dur="1.935s" repeatCount="indefinite"/></rect>
<rect x="116.4" y="367.6" width="12.1" height="64.4" fill="url(#bar)" opacity="0.85"><animate attributeName="height" values="64.4;28.9;33.7;32.0;49.5;33.4;41.7;18.2;64.4" dur="1.935s" repeatCount="indefinite"/><animate attributeName="y" values="367.6;403.1;398.3;400.0;382.5;398.6;390.3;413.8;367.6" dur="1.935s" repeatCount="indefinite"/></rect>
<rect x="131.6" y="376.2" width="12.1" height="55.8" fill="url(#bar)" opacity="0.85"><animate attributeName="height" values="55.8;32.1;31.4;24.1;44.9;23.1;34.2;29.1;55.8" dur="1.935s" repeatCount="indefinite"/><animate attributeName="y" values="376.2;399.9;400.6;407.9;387.1;408.9;397.8;402.9;376.2" dur="1.935s" repeatCount="indefinite"/></rect>
<rect x="146.7" y="370.4" width="12.1" height="61.6" fill="url(#bar)" opacity="0.85"><animate attributeName="height" values="61.6;24.9;45.5;17.0;62.6;30.2;50.6;18.8;61.6" dur="1.935s" repeatCount="indefinite"/><animate attributeName="y" values="370.4;407.1;386.5;415.0;369.4;401.8;381.4;413.2;370.4" dur="1.935s" repeatCount="indefinite"/></rect>
<rect x="161.8" y="387.3" width="12.1" height="44.7" fill="url(#bar)" opacity="0.85"><animate attributeName="height" values="44.7;24.1;51.2;23.2;48.7;38.1;52.5;20.4;44.7" dur="1.935s" repeatCount="indefinite"/><animate attributeName="y" values="387.3;407.9;380.8;408.8;383.3;393.9;379.5;411.6;387.3" dur="1.935s" repeatCount="indefinite"/></rect>
<rect x="176.9" y="389.9" width="12.1" height="42.1" fill="url(#bar)" opacity="0.85"><animate attributeName="height" values="42.1;32.0;28.5;22.4;60.4;37.0;33.8;15.6;42.1" dur="1.935s" repeatCount="indefinite"/><animate attributeName="y" values="389.9;400.0;403.5;409.6;371.6;395.0;398.2;416.4;389.9" dur="1.935s" repeatCount="indefinite"/></rect>
<rect x="192.0" y="374.9" width="12.1" height="57.1" fill="url(#bar)" opacity="0.85"><animate attributeName="height" values="57.1;28.5;31.6;24.1;34.2;32.6;41.5;24.5;57.1" dur="1.935s" repeatCount="indefinite"/><animate attributeName="y" values="374.9;403.5;400.4;407.9;397.8;399.4;390.5;407.5;374.9" dur="1.935s" repeatCount="indefinite"/></rect>
<rect x="207.1" y="397.5" width="12.1" height="34.5" fill="url(#bar)" opacity="0.85"><animate attributeName="height" values="34.5;28.7;34.8;23.8;42.3;31.1;42.3;23.1;34.5" dur="1.935s" repeatCount="indefinite"/><animate attributeName="y" values="397.5;403.3;397.2;408.2;389.7;400.9;389.7;408.9;397.5" dur="1.935s" repeatCount="indefinite"/></rect>
<rect x="222.2" y="398.6" width="12.1" height="33.4" fill="url(#bar)" opacity="0.85"><animate attributeName="height" values="33.4;21.2;27.0;21.8;46.6;21.0;44.6;21.0;33.4" dur="1.935s" repeatCount="indefinite"/><animate attributeName="y" values="398.6;410.8;405.0;410.2;385.4;411.0;387.4;411.0;398.6" dur="1.935s" repeatCount="indefinite"/></rect>
<rect x="237.3" y="385.2" width="12.1" height="46.8" fill="url(#bar)" opacity="0.85"><animate attributeName="height" values="46.8;27.4;48.3;24.8;34.1;21.5;44.9;18.6;46.8" dur="1.935s" repeatCount="indefinite"/><animate attributeName="y" values="385.2;404.6;383.7;407.2;397.9;410.5;387.1;413.4;385.2" dur="1.935s" repeatCount="indefinite"/></rect>
<rect x="252.4" y="377.7" width="12.1" height="54.3" fill="url(#bar)" opacity="0.85"><animate attributeName="height" values="54.3;25.7;34.2;26.9;36.6;23.9;34.0;19.7;54.3" dur="1.935s" repeatCount="indefinite"/><animate attributeName="y" values="377.7;406.3;397.8;405.1;395.4;408.1;398.0;412.3;377.7" dur="1.935s" repeatCount="indefinite"/></rect>
<rect x="267.6" y="373.5" width="12.1" height="58.5" fill="url(#bar)" opacity="0.85"><animate attributeName="height" values="58.5;30.6;44.7;25.0;31.0;23.7;39.2;26.2;58.5" dur="1.935s" repeatCount="indefinite"/><animate attributeName="y" values="373.5;401.4;387.3;407.0;401.0;408.3;392.8;405.8;373.5" dur="1.935s" repeatCount="indefinite"/></rect>
<rect x="282.7" y="390.5" width="12.1" height="41.5" fill="url(#bar)" opacity="0.85"><animate attributeName="height" values="41.5;26.0;45.0;20.4;53.2;29.1;39.5;22.3;41.5" dur="1.935s" repeatCount="indefinite"/><animate attributeName="y" values="390.5;406.0;387.0;411.6;378.8;402.9;392.5;409.7;390.5" dur="1.935s" repeatCount="indefinite"/></rect>
<rect x="297.8" y="387.2" width="12.1" height="44.8" fill="url(#bar)" opacity="0.85"><animate attributeName="height" values="44.8;18.5;45.8;29.7;55.4;24.5;41.9;24.1;44.8" dur="1.935s" repeatCount="indefinite"/><animate attributeName="y" values="387.2;413.5;386.2;402.3;376.6;407.5;390.1;407.9;387.2" dur="1.935s" repeatCount="indefinite"/></rect>
<rect x="312.9" y="400.2" width="12.1" height="31.8" fill="url(#bar)" opacity="0.85"><animate attributeName="height" values="31.8;29.5;26.0;29.0;37.2;35.3;31.4;20.7;31.8" dur="1.935s" repeatCount="indefinite"/><animate attributeName="y" values="400.2;402.5;406.0;403.0;394.8;396.7;400.6;411.3;400.2" dur="1.935s" repeatCount="indefinite"/></rect>
<rect x="328.0" y="377.6" width="12.1" height="54.4" fill="url(#bar)" opacity="0.85"><animate attributeName="height" values="54.4;32.5;40.5;27.2;41.3;31.2;35.0;25.8;54.4" dur="1.935s" repeatCount="indefinite"/><animate attributeName="y" values="377.6;399.5;391.5;404.8;390.7;400.8;397.0;406.2;377.6" dur="1.935s" repeatCount="indefinite"/></rect>
<rect x="343.1" y="379.8" width="12.1" height="52.2" fill="url(#bar)" opacity="0.85"><animate attributeName="height" values="52.2;22.3;42.0;15.7;56.7;29.9;33.2;21.8;52.2" dur="1.935s" repeatCount="indefinite"/><animate attributeName="y" values="379.8;409.7;390.0;416.3;375.3;402.1;398.8;410.2;379.8" dur="1.935s" repeatCount="indefinite"/></rect>
<rect x="358.2" y="379.9" width="12.1" height="52.1" fill="url(#bar)" opacity="0.85"><animate attributeName="height" values="52.1;26.2;44.1;20.7;38.5;24.0;31.8;19.4;52.1" dur="1.935s" repeatCount="indefinite"/><animate attributeName="y" values="379.9;405.8;387.9;411.3;393.5;408.0;400.2;412.6;379.9" dur="1.935s" repeatCount="indefinite"/></rect>
<rect x="373.3" y="381.1" width="12.1" height="50.9" fill="url(#bar)" opacity="0.85"><animate attributeName="height" values="50.9;29.8;37.8;25.8;57.0;28.8;26.7;21.2;50.9" dur="1.935s" repeatCount="indefinite"/><animate attributeName="y" values="381.1;402.2;394.2;406.2;375.0;403.2;405.3;410.8;381.1" dur="1.935s" repeatCount="indefinite"/></rect>
<rect x="388.4" y="402.7" width="12.1" height="29.3" fill="url(#bar)" opacity="0.85"><animate attributeName="height" values="29.3;26.5;45.9;21.4;55.5;17.6;47.9;15.1;29.3" dur="1.935s" repeatCount="indefinite"/><animate attributeName="y" values="402.7;405.5;386.1;410.6;376.5;414.4;384.1;416.9;402.7" dur="1.935s" repeatCount="indefinite"/></rect>
<rect x="403.6" y="379.7" width="12.1" height="52.3" fill="url(#bar)" opacity="0.85"><animate attributeName="height" values="52.3;20.3;31.7;16.1;29.5;29.9;42.2;14.4;52.3" dur="1.935s" repeatCount="indefinite"/><animate attributeName="y" values="379.7;411.7;400.3;415.9;402.5;402.1;389.8;417.6;379.7" dur="1.935s" repeatCount="indefinite"/></rect>
<rect x="418.7" y="386.2" width="12.1" height="45.8" fill="url(#bar)" opacity="0.85"><animate attributeName="height" values="45.8;19.5;42.8;16.0;44.8;32.0;36.9;21.2;45.8" dur="1.935s" repeatCount="indefinite"/><animate attributeName="y" values="386.2;412.5;389.2;416.0;387.2;400.0;395.1;410.8;386.2" dur="1.935s" repeatCount="indefinite"/></rect>
<rect x="433.8" y="381.4" width="12.1" height="50.6" fill="url(#bar)" opacity="0.85"><animate attributeName="height" values="50.6;26.2;40.8;17.1;53.4;25.2;45.5;21.4;50.6" dur="1.935s" repeatCount="indefinite"/><animate attributeName="y" values="381.4;405.8;391.2;414.9;378.6;406.8;386.5;410.6;381.4" dur="1.935s" repeatCount="indefinite"/></rect>
<rect x="448.9" y="384.0" width="12.1" height="48.0" fill="url(#bar)" opacity="0.85"><animate attributeName="height" values="48.0;29.7;24.5;25.9;35.8;30.3;28.8;18.3;48.0" dur="1.935s" repeatCount="indefinite"/><animate attributeName="y" values="384.0;402.3;407.5;406.1;396.2;401.7;403.2;413.7;384.0" dur="1.935s" repeatCount="indefinite"/></rect>
<rect x="464.0" y="400.7" width="12.1" height="31.3" fill="url(#bar)" opacity="0.85"><animate attributeName="height" values="31.3;27.3;28.4;20.2;49.3;22.6;44.0;18.7;31.3" dur="1.935s" repeatCount="indefinite"/><animate attributeName="y" values="400.7;404.7;403.6;411.8;382.7;409.4;388.0;413.3;400.7" dur="1.935s" repeatCount="indefinite"/></rect>
<rect x="479.1" y="379.1" width="12.1" height="52.9" fill="url(#bar)" opacity="0.85"><animate attributeName="height" values="52.9;26.5;43.4;23.3;35.7;25.0;44.9;23.6;52.9" dur="1.935s" repeatCount="indefinite"/><animate attributeName="y" values="379.1;405.5;388.6;408.7;396.3;407.0;387.1;408.4;379.1" dur="1.935s" repeatCount="indefinite"/></rect>
<rect x="494.2" y="398.3" width="12.1" height="33.7" fill="url(#bar)" opacity="0.85"><animate attributeName="height" values="33.7;18.6;27.0;21.9;32.2;27.6;30.2;22.3;33.7" dur="1.935s" repeatCount="indefinite"/><animate attributeName="y" values="398.3;413.4;405.0;410.1;399.8;404.4;401.8;409.7;398.3" dur="1.935s" repeatCount="indefinite"/></rect>
<rect x="509.3" y="398.7" width="12.1" height="33.3" fill="url(#bar)" opacity="0.85"><animate attributeName="height" values="33.3;28.3;28.4;13.8;31.0;29.1;26.6;15.0;33.3" dur="1.935s" repeatCount="indefinite"/><animate attributeName="y" values="398.7;403.7;403.6;418.2;401.0;402.9;405.4;417.0;398.7" dur="1.935s" repeatCount="indefinite"/></rect>
<rect x="524.4" y="379.2" width="12.1" height="52.8" fill="url(#bar)" opacity="0.85"><animate attributeName="height" values="52.8;20.6;34.8;20.4;38.8;30.1;23.3;16.4;52.8" dur="1.935s" repeatCount="indefinite"/><animate attributeName="y" values="379.2;411.4;397.2;411.6;393.2;401.9;408.7;415.6;379.2" dur="1.935s" repeatCount="indefinite"/></rect>
<rect x="539.6" y="394.0" width="12.1" height="38.0" fill="url(#bar)" opacity="0.85"><animate attributeName="height" values="38.0;24.3;36.2;13.1;28.8;19.5;29.7;20.8;38.0" dur="1.935s" repeatCount="indefinite"/><animate attributeName="y" values="394.0;407.7;395.8;418.9;403.2;412.5;402.3;411.2;394.0" dur="1.935s" repeatCount="indefinite"/></rect>
<rect x="554.7" y="386.8" width="12.1" height="45.2" fill="url(#bar)" opacity="0.85"><animate attributeName="height" values="45.2;27.5;29.1;18.4;29.6;29.5;41.9;22.8;45.2" dur="1.935s" repeatCount="indefinite"/><animate attributeName="y" values="386.8;404.5;402.9;413.6;402.4;402.5;390.1;409.2;386.8" dur="1.935s" repeatCount="indefinite"/></rect>
<rect x="569.8" y="387.4" width="12.1" height="44.6" fill="url(#bar)" opacity="0.85"><animate attributeName="height" values="44.6;26.6;32.2;23.6;34.1;27.1;38.4;18.7;44.6" dur="1.935s" repeatCount="indefinite"/><animate attributeName="y" values="387.4;405.4;399.8;408.4;397.9;404.9;393.6;413.3;387.4" dur="1.935s" repeatCount="indefinite"/></rect>
<rect x="584.9" y="385.2" width="12.1" height="46.8" fill="url(#bar)" opacity="0.85"><animate attributeName="height" values="46.8;23.5;25.4;13.4;33.7;18.3;41.2;17.6;46.8" dur="1.935s" repeatCount="indefinite"/><animate attributeName="y" values="385.2;408.5;406.6;418.6;398.3;413.7;390.8;414.4;385.2" dur="1.935s" repeatCount="indefinite"/></rect>
<rect x="600.0" y="388.4" width="12.1" height="43.6" fill="url(#bar)" opacity="0.85"><animate attributeName="height" values="43.6;26.7;36.1;23.5;39.3;26.6;41.9;16.3;43.6" dur="1.935s" repeatCount="indefinite"/><animate attributeName="y" values="388.4;405.3;395.9;408.5;392.7;405.4;390.1;415.7;388.4" dur="1.935s" repeatCount="indefinite"/></rect>
<rect x="615.1" y="389.6" width="12.1" height="42.4" fill="url(#bar)" opacity="0.85"><animate attributeName="height" values="42.4;26.8;24.8;13.4;36.9;28.3;32.3;13.5;42.4" dur="1.935s" repeatCount="indefinite"/><animate attributeName="y" values="389.6;405.2;407.2;418.6;395.1;403.7;399.7;418.5;389.6" dur="1.935s" repeatCount="indefinite"/></rect>
<rect x="630.2" y="383.0" width="12.1" height="49.0" fill="url(#bar)" opacity="0.85"><animate attributeName="height" values="49.0;20.0;28.4;13.3;35.3;29.3;30.1;19.8;49.0" dur="1.935s" repeatCount="indefinite"/><animate attributeName="y" values="383.0;412.0;403.6;418.7;396.7;402.7;401.9;412.2;383.0" dur="1.935s" repeatCount="indefinite"/></rect>
<rect x="645.3" y="384.9" width="12.1" height="47.1" fill="url(#bar)" opacity="0.85"><animate attributeName="height" values="47.1;13.5;33.1;14.0;36.9;27.2;28.2;18.9;47.1" dur="1.935s" repeatCount="indefinite"/><animate attributeName="y" values="384.9;418.5;398.9;418.0;395.1;404.8;403.8;413.1;384.9" dur="1.935s" repeatCount="indefinite"/></rect>
<rect x="660.4" y="400.9" width="12.1" height="31.1" fill="url(#bar)" opacity="0.85"><animate attributeName="height" values="31.1;21.3;33.5;18.6;32.1;25.3;23.4;14.5;31.1" dur="1.935s" repeatCount="indefinite"/><animate attributeName="y" values="400.9;410.7;398.5;413.4;399.9;406.7;408.6;417.5;400.9" dur="1.935s" repeatCount="indefinite"/></rect>
<rect x="675.6" y="389.2" width="12.1" height="42.8" fill="url(#bar)" opacity="0.85"><animate attributeName="height" values="42.8;19.8;21.0;20.1;45.9;16.8;39.1;10.8;42.8" dur="1.935s" repeatCount="indefinite"/><animate attributeName="y" values="389.2;412.2;411.0;411.9;386.1;415.2;392.9;421.2;389.2" dur="1.935s" repeatCount="indefinite"/></rect>
<rect x="690.7" y="385.7" width="12.1" height="46.3" fill="url(#bar)" opacity="0.85"><animate attributeName="height" values="46.3;21.0;23.9;13.8;34.1;20.4;30.3;16.2;46.3" dur="1.935s" repeatCount="indefinite"/><animate attributeName="y" values="385.7;411.0;408.1;418.2;397.9;411.6;401.7;415.8;385.7" dur="1.935s" repeatCount="indefinite"/></rect>
<rect x="705.8" y="406.5" width="12.1" height="25.5" fill="url(#bar)" opacity="0.85"><animate attributeName="height" values="25.5;16.1;21.5;21.3;27.0;23.4;21.7;17.4;25.5" dur="1.935s" repeatCount="indefinite"/><animate attributeName="y" values="406.5;415.9;410.5;410.7;405.0;408.6;410.3;414.6;406.5" dur="1.935s" repeatCount="indefinite"/></rect>
<rect x="720.9" y="398.7" width="12.1" height="33.3" fill="url(#bar)" opacity="0.85"><animate attributeName="height" values="33.3;19.2;32.4;15.2;39.3;26.6;34.2;16.7;33.3" dur="1.935s" repeatCount="indefinite"/><animate attributeName="y" values="398.7;412.8;399.6;416.8;392.7;405.4;397.8;415.3;398.7" dur="1.935s" repeatCount="indefinite"/></rect>
<rect x="736.0" y="393.2" width="12.1" height="38.8" fill="url(#bar)" opacity="0.85"><animate attributeName="height" values="38.8;23.9;18.8;22.9;33.7;26.1;20.6;13.3;38.8" dur="1.935s" repeatCount="indefinite"/><animate attributeName="y" values="393.2;408.1;413.2;409.1;398.3;405.9;411.4;418.7;393.2" dur="1.935s" repeatCount="indefinite"/></rect>
<rect x="751.1" y="396.6" width="12.1" height="35.4" fill="url(#bar)" opacity="0.85"><animate attributeName="height" values="35.4;19.6;35.2;14.9;28.1;22.3;22.4;19.5;35.4" dur="1.935s" repeatCount="indefinite"/><animate attributeName="y" values="396.6;412.4;396.8;417.1;403.9;409.7;409.6;412.5;396.6" dur="1.935s" repeatCount="indefinite"/></rect>
<rect x="766.2" y="404.3" width="12.1" height="27.7" fill="url(#bar)" opacity="0.85"><animate attributeName="height" values="27.7;12.4;29.2;13.8;43.0;14.9;28.6;16.2;27.7" dur="1.935s" repeatCount="indefinite"/><animate attributeName="y" values="404.3;419.6;402.8;418.2;389.0;417.1;403.4;415.8;404.3" dur="1.935s" repeatCount="indefinite"/></rect>
<rect x="781.3" y="398.8" width="12.1" height="33.2" fill="url(#bar)" opacity="0.85"><animate attributeName="height" values="33.2;12.9;27.0;12.5;23.2;25.4;23.8;10.7;33.2" dur="1.935s" repeatCount="indefinite"/><animate attributeName="y" values="398.8;419.1;405.0;419.5;408.8;406.6;408.2;421.3;398.8" dur="1.935s" repeatCount="indefinite"/></rect>
<rect x="796.4" y="409.8" width="12.1" height="22.2" fill="url(#bar)" opacity="0.85"><animate attributeName="height" values="22.2;22.5;32.6;19.1;39.3;16.8;29.5;17.1;22.2" dur="1.935s" repeatCount="indefinite"/><animate attributeName="y" values="409.8;409.5;399.4;412.9;392.7;415.2;402.5;414.9;409.8" dur="1.935s" repeatCount="indefinite"/></rect>
<rect x="811.6" y="404.9" width="12.1" height="27.1" fill="url(#bar)" opacity="0.85"><animate attributeName="height" values="27.1;20.7;31.2;16.5;35.7;13.4;25.4;12.9;27.1" dur="1.935s" repeatCount="indefinite"/><animate attributeName="y" values="404.9;411.3;400.8;415.5;396.3;418.6;406.6;419.1;404.9" dur="1.935s" repeatCount="indefinite"/></rect>
<rect x="826.7" y="402.8" width="12.1" height="29.2" fill="url(#bar)" opacity="0.85"><animate attributeName="height" values="29.2;22.7;33.3;11.4;34.0;15.4;30.1;19.1;29.2" dur="1.935s" repeatCount="indefinite"/><animate attributeName="y" values="402.8;409.3;398.7;420.6;398.0;416.6;401.9;412.9;402.8" dur="1.935s" repeatCount="indefinite"/></rect>
<rect x="841.8" y="407.8" width="12.1" height="24.2" fill="url(#bar)" opacity="0.85"><animate attributeName="height" values="24.2;16.2;22.8;18.1;38.5;13.3;21.8;13.1;24.2" dur="1.935s" repeatCount="indefinite"/><animate attributeName="y" values="407.8;415.8;409.2;413.9;393.5;418.7;410.2;418.9;407.8" dur="1.935s" repeatCount="indefinite"/></rect>
<rect x="856.9" y="390.9" width="12.1" height="41.1" fill="url(#bar)" opacity="0.85"><animate attributeName="height" values="41.1;20.3;27.3;20.6;29.2;22.6;22.2;11.9;41.1" dur="1.935s" repeatCount="indefinite"/><animate attributeName="y" values="390.9;411.7;404.7;411.4;402.8;409.4;409.8;420.1;390.9" dur="1.935s" repeatCount="indefinite"/></rect>
<rect x="872.0" y="392.3" width="12.1" height="39.7" fill="url(#bar)" opacity="0.85"><animate attributeName="height" values="39.7;20.7;26.9;12.0;27.2;23.9;25.6;9.7;39.7" dur="1.935s" repeatCount="indefinite"/><animate attributeName="y" values="392.3;411.3;405.1;420.0;404.8;408.1;406.4;422.3;392.3" dur="1.935s" repeatCount="indefinite"/></rect>
<rect x="887.1" y="406.8" width="12.1" height="25.2" fill="url(#bar)" opacity="0.85"><animate attributeName="height" values="25.2;17.9;30.5;14.9;25.5;22.0;22.8;11.7;25.2" dur="1.935s" repeatCount="indefinite"/><animate attributeName="y" values="406.8;414.1;401.5;417.1;406.5;410.0;409.2;420.3;406.8" dur="1.935s" repeatCount="indefinite"/></rect>
<rect x="902.2" y="400.1" width="12.1" height="31.9" fill="url(#bar)" opacity="0.85"><animate attributeName="height" values="31.9;16.8;30.1;14.7;33.2;17.7;28.8;17.3;31.9" dur="1.935s" repeatCount="indefinite"/><animate attributeName="y" values="400.1;415.2;401.9;417.3;398.8;414.3;403.2;414.7;400.1" dur="1.935s" repeatCount="indefinite"/></rect>
<rect x="917.3" y="410.1" width="12.1" height="21.9" fill="url(#bar)" opacity="0.85"><animate attributeName="height" values="21.9;20.8;30.4;13.6;20.0;17.5;28.4;10.8;21.9" dur="1.935s" repeatCount="indefinite"/><animate attributeName="y" values="410.1;411.2;401.6;418.4;412.0;414.5;403.6;421.2;410.1" dur="1.935s" repeatCount="indefinite"/></rect>
<rect x="932.4" y="408.7" width="12.1" height="23.3" fill="url(#bar)" opacity="0.85"><animate attributeName="height" values="23.3;14.8;29.9;15.8;33.5;18.8;28.1;12.7;23.3" dur="1.935s" repeatCount="indefinite"/><animate attributeName="y" values="408.7;417.2;402.1;416.2;398.5;413.2;403.9;419.3;408.7" dur="1.935s" repeatCount="indefinite"/></rect>
<rect x="947.6" y="402.9" width="12.1" height="29.1" fill="url(#bar)" opacity="0.85"><animate attributeName="height" values="29.1;11.8;31.1;11.4;35.4;19.1;29.0;13.4;29.1" dur="1.935s" repeatCount="indefinite"/><animate attributeName="y" values="402.9;420.2;400.9;420.6;396.6;412.9;403.0;418.6;402.9" dur="1.935s" repeatCount="indefinite"/></rect>
<rect x="962.7" y="402.2" width="12.1" height="29.8" fill="url(#bar)" opacity="0.85"><animate attributeName="height" values="29.8;14.2;16.6;15.6;31.0;15.3;31.3;16.7;29.8" dur="1.935s" repeatCount="indefinite"/><animate attributeName="y" values="402.2;417.8;415.4;416.4;401.0;416.7;400.7;415.3;402.2" dur="1.935s" repeatCount="indefinite"/></rect>
<rect x="977.8" y="406.1" width="12.1" height="25.9" fill="url(#bar)" opacity="0.85"><animate attributeName="height" values="25.9;15.2;18.4;16.3;22.6;15.0;31.5;9.8;25.9" dur="1.935s" repeatCount="indefinite"/><animate attributeName="y" values="406.1;416.8;413.6;415.7;409.4;417.0;400.5;422.2;406.1" dur="1.935s" repeatCount="indefinite"/></rect>
<rect x="992.9" y="396.6" width="12.1" height="35.4" fill="url(#bar)" opacity="0.85"><animate attributeName="height" values="35.4;16.0;17.9;16.9;29.6;19.9;21.9;11.0;35.4" dur="1.935s" repeatCount="indefinite"/><animate attributeName="y" values="396.6;416.0;414.1;415.1;402.4;412.1;410.1;421.0;396.6" dur="1.935s" repeatCount="indefinite"/></rect>
<rect x="1008.0" y="411.5" width="12.1" height="20.5" fill="url(#bar)" opacity="0.85"><animate attributeName="height" values="20.5;11.4;22.4;12.9;19.5;13.2;23.3;8.7;20.5" dur="1.935s" repeatCount="indefinite"/><animate attributeName="y" values="411.5;420.6;409.6;419.1;412.5;418.8;408.7;423.3;411.5" dur="1.935s" repeatCount="indefinite"/></rect>
<rect x="1023.1" y="413.6" width="12.1" height="18.4" fill="url(#bar)" opacity="0.85"><animate attributeName="height" values="18.4;16.7;15.9;12.9;35.2;11.9;21.5;9.8;18.4" dur="1.935s" repeatCount="indefinite"/><animate attributeName="y" values="413.6;415.3;416.1;419.1;396.8;420.1;410.5;422.2;413.6" dur="1.935s" repeatCount="indefinite"/></rect>
<rect x="1038.2" y="399.8" width="12.1" height="32.2" fill="url(#bar)" opacity="0.85"><animate attributeName="height" values="32.2;15.0;15.6;15.8;34.5;19.3;18.6;16.1;32.2" dur="1.935s" repeatCount="indefinite"/><animate attributeName="y" values="399.8;417.0;416.4;416.2;397.5;412.7;413.4;415.9;399.8" dur="1.935s" repeatCount="indefinite"/></rect>
<rect x="1053.3" y="402.3" width="12.1" height="29.7" fill="url(#bar)" opacity="0.85"><animate attributeName="height" values="29.7;13.4;15.4;13.5;19.1;12.0;24.9;13.9;29.7" dur="1.935s" repeatCount="indefinite"/><animate attributeName="y" values="402.3;418.6;416.6;418.5;412.9;420.0;407.1;418.1;402.3" dur="1.935s" repeatCount="indefinite"/></rect>
<rect x="1068.4" y="403.8" width="12.1" height="28.2" fill="url(#bar)" opacity="0.85"><animate attributeName="height" values="28.2;13.9;25.6;16.2;18.1;18.2;26.8;12.6;28.2" dur="1.935s" repeatCount="indefinite"/><animate attributeName="y" values="403.8;418.1;406.4;415.8;413.9;413.8;405.2;419.4;403.8" dur="1.935s" repeatCount="indefinite"/></rect>
<rect x="1083.6" y="407.4" width="12.1" height="24.6" fill="url(#bar)" opacity="0.85"><animate attributeName="height" values="24.6;16.8;14.1;16.4;26.4;16.4;24.3;11.4;24.6" dur="1.935s" repeatCount="indefinite"/><animate attributeName="y" values="407.4;415.2;417.9;415.6;405.6;415.6;407.7;420.6;407.4" dur="1.935s" repeatCount="indefinite"/></rect>
<rect x="1098.7" y="410.0" width="12.1" height="22.0" fill="url(#bar)" opacity="0.85"><animate attributeName="height" values="22.0;11.6;15.8;8.6;31.4;20.1;24.3;10.0;22.0" dur="1.935s" repeatCount="indefinite"/><animate attributeName="y" values="410.0;420.4;416.2;423.4;400.6;411.9;407.7;422.0;410.0" dur="1.935s" repeatCount="indefinite"/></rect>
<rect x="1113.8" y="408.6" width="12.1" height="23.4" fill="url(#bar)" opacity="0.85"><animate attributeName="height" values="23.4;16.6;19.7;11.6;29.7;12.8;15.7;10.5;23.4" dur="1.935s" repeatCount="indefinite"/><animate attributeName="y" values="408.6;415.4;412.3;420.4;402.3;419.2;416.3;421.5;408.6" dur="1.935s" repeatCount="indefinite"/></rect>
<rect x="1128.9" y="401.0" width="12.1" height="31.0" fill="url(#bar)" opacity="0.85"><animate attributeName="height" values="31.0;18.1;16.1;14.6;18.2;16.4;15.7;9.0;31.0" dur="1.935s" repeatCount="indefinite"/><animate attributeName="y" values="401.0;413.9;415.9;417.4;413.8;415.6;416.3;423.0;401.0" dur="1.935s" repeatCount="indefinite"/></rect>
</g>
<path d="M56 440H1144" stroke="#262251" stroke-width="1"/>
</svg>