<svg xmlns="http://www.w3.org/2000/svg" viewBox="0 0 440 340" width="440" height="340">
<g><circle cx="292" cy="170" r="146" fill="#121110" stroke="#4a4640" stroke-width="1.2"/>
<circle cx="292" cy="170" r="140" fill="none" stroke="#2a2825" stroke-width="0.8"/>
<circle cx="292" cy="170" r="135" fill="none" stroke="#2a2825" stroke-width="0.8"/>
<circle cx="292" cy="170" r="130" fill="none" stroke="#2a2825" stroke-width="0.8"/>
<circle cx="292" cy="170" r="125" fill="none" stroke="#2a2825" stroke-width="0.8"/>
<circle cx="292" cy="170" r="120" fill="none" stroke="#2a2825" stroke-width="0.8"/>
<circle cx="292" cy="170" r="115" fill="none" stroke="#2a2825" stroke-width="0.8"/>
<circle cx="292" cy="170" r="110" fill="none" stroke="#2a2825" stroke-width="0.8"/>
<circle cx="292" cy="170" r="105" fill="none" stroke="#2a2825" stroke-width="0.8"/>
<circle cx="292" cy="170" r="100" fill="none" stroke="#2a2825" stroke-width="0.8"/>
<circle cx="292" cy="170" r="95" fill="none" stroke="#2a2825" stroke-width="0.8"/>
<circle cx="292" cy="170" r="90" fill="none" stroke="#2a2825" stroke-width="0.8"/>
<circle cx="292" cy="170" r="85" fill="none" stroke="#2a2825" stroke-width="0.8"/>
<circle cx="292" cy="170" r="80" fill="none" stroke="#2a2825" stroke-width="0.8"/>
<circle cx="292" cy="170" r="75" fill="none" stroke="#2a2825" stroke-width="0.8"/>
<circle cx="292" cy="170" r="70" fill="none" stroke="#2a2825" stroke-width="0.8"/>
<circle cx="292" cy="170" r="65" fill="none" stroke="#2a2825" stroke-width="0.8"/>
<circle cx="292" cy="170" r="60" fill="none" stroke="#2a2825" stroke-width="0.8"/>
<circle cx="292" cy="170" r="55" fill="none" stroke="#2a2825" stroke-width="0.8"/>
<circle cx="292" cy="170" r="50" fill="none" stroke="#2a2825" stroke-width="0.8"/>
<circle cx="292" cy="170" r="45" fill="none" stroke="#2a2825" stroke-width="0.8"/>
<circle cx="292" cy="170" r="40" fill="#b83a17"/><circle cx="292" cy="170" r="3.5" fill="#121110"/>
<path d="M258 166A34 34 0 0 1 294 136" stroke="#fff" stroke-opacity="0.18" stroke-width="3" fill="none"/>
<animateTransform attributeName="transform" type="rotate" values="0 292 170;360 292 170" dur="9s" repeatCount="indefinite"/></g>
<rect x="10" y="20" width="290" height="300" fill="#26241f"/>
<rect x="297" y="20" width="3" height="300" fill="#000" opacity="0.18"/>
<path d="M30.984 43.624H33.48Q35.088 43.624 35.862 44.692Q36.636 45.76 36.636 47.812Q36.636 49.864 35.862 50.932Q35.088 52.0 33.48 52.0H30.984ZM33.396 50.896Q34.32 50.896 34.769999999999996 50.278Q35.22 49.66 35.22 48.508V47.116Q35.22 45.964 34.769999999999996 45.346000000000004Q34.32 44.728 33.396 44.728H32.316V50.896Z M44.316 43.624V49.756Q44.316 50.296 44.13 50.739999999999995Q43.944 51.184 43.602000000000004 51.495999999999995Q43.26 51.808 42.78 51.976Q42.3 52.144 41.711999999999996 52.144Q40.608 52.144 39.95399999999999 51.592Q39.3 51.04 39.108 50.068L40.379999999999995 49.804Q40.488 50.32 40.788 50.668Q41.088 51.016 41.724 51.016Q42.312 51.016 42.641999999999996 50.662Q42.972 50.308 42.972 49.576V44.752H40.056V43.624Z M48.587999999999994 49.0V47.692H52.211999999999996V49.0Z M58.8 52.144Q58.007999999999996 52.144 57.425999999999995 51.849999999999994Q56.843999999999994 51.556 56.465999999999994 51.004Q56.087999999999994 50.452 55.907999999999994 49.647999999999996Q55.727999999999994 48.844 55.727999999999994 47.812Q55.727999999999994 46.792 55.907999999999994 45.982Q56.087999999999994 45.172 56.465999999999994 44.62Q56.843999999999994 44.068 57.425999999999995 43.774Q58.007999999999996 43.480000000000004 58.8 43.480000000000004Q59.592 43.480000000000004 60.17399999999999 43.774Q60.75599999999999 44.068 61.13399999999999 44.62Q61.51199999999999 45.172 61.69199999999999 45.982Q61.87199999999999 46.792 61.87199999999999 47.812Q61.87199999999999 48.844 61.69199999999999 49.647999999999996Q61.51199999999999 50.452 61.13399999999999 51.004Q60.75599999999999 51.556 60.17399999999999 51.849999999999994Q59.592 52.144 58.8 52.144ZM58.8 51.04Q59.711999999999996 51.04 60.102 50.361999999999995Q60.492 49.684 60.492 48.532V47.092Q60.492 45.94 60.102 45.262Q59.711999999999996 44.584 58.8 44.584Q58.343999999999994 44.584 58.019999999999996 44.758Q57.696 44.932 57.492 45.262Q57.288 45.592 57.19799999999999 46.054Q57.108 46.516 57.108 47.092V48.532Q57.108 49.108 57.19799999999999 49.56999999999999Q57.288 50.032 57.492 50.361999999999995Q57.696 50.692 58.019999999999996 50.866Q58.343999999999994 51.04 58.8 51.04ZM58.8 48.52Q58.379999999999995 48.52 58.217999999999996 48.352000000000004Q58.056 48.184 58.056 47.944V47.68Q58.056 47.44 58.217999999999996 47.272Q58.379999999999995 47.104 58.8 47.104Q59.22 47.104 59.382 47.272Q59.544 47.44 59.544 47.68V47.944Q59.544 48.184 59.382 48.352000000000004Q59.22 48.52 58.8 48.52Z M67.19999999999999 52.144Q66.408 52.144 65.826 51.849999999999994Q65.244 51.556 64.866 51.004Q64.488 50.452 64.30799999999999 49.647999999999996Q64.128 48.844 64.128 47.812Q64.128 46.792 64.30799999999999 45.982Q64.488 45.172 64.866 44.62Q65.244 44.068 65.826 43.774Q66.408 43.480000000000004 67.19999999999999 43.480000000000004Q67.99199999999999 43.480000000000004 68.57399999999998 43.774Q69.15599999999999 44.068 69.53399999999999 44.62Q69.91199999999999 45.172 70.09199999999998 45.982Q70.27199999999999 46.792 70.27199999999999 47.812Q70.27199999999999 48.844 70.09199999999998 49.647999999999996Q69.91199999999999 50.452 69.53399999999999 51.004Q69.15599999999999 51.556 68.57399999999998 51.849999999999994Q67.99199999999999 52.144 67.19999999999999 52.144ZM67.19999999999999 51.04Q68.112 51.04 68.502 50.361999999999995Q68.892 49.684 68.892 48.532V47.092Q68.892 45.94 68.502 45.262Q68.112 44.584 67.19999999999999 44.584Q66.744 44.584 66.41999999999999 44.758Q66.09599999999999 44.932 65.892 45.262Q65.68799999999999 45.592 65.59799999999998 46.054Q65.508 46.516 65.508 47.092V48.532Q65.508 49.108 65.59799999999998 49.56999999999999Q65.68799999999999 50.032 65.892 50.361999999999995Q66.09599999999999 50.692 66.41999999999999 50.866Q66.744 51.04 67.19999999999999 51.04ZM67.19999999999999 48.52Q66.78 48.52 66.618 48.352000000000004Q66.45599999999999 48.184 66.45599999999999 47.944V47.68Q66.45599999999999 47.44 66.618 47.272Q66.78 47.104 67.19999999999999 47.104Q67.61999999999999 47.104 67.78199999999998 47.272Q67.94399999999999 47.44 67.94399999999999 47.68V47.944Q67.94399999999999 48.184 67.78199999999998 48.352000000000004Q67.61999999999999 48.52 67.19999999999999 48.52Z M78.54 52.0H72.756V50.716L75.492 48.328Q76.14 47.752 76.494 47.236000000000004Q76.848 46.72 76.848 46.144V46.012Q76.848 45.352 76.488 44.998Q76.128 44.644 75.444 44.644Q74.748 44.644 74.37 45.016Q73.992 45.388 73.824 45.964L72.648 45.519999999999996Q72.768 45.124 72.99600000000001 44.757999999999996Q73.224 44.391999999999996 73.578 44.104Q73.932 43.816 74.418 43.648Q74.904 43.480000000000004 75.54 43.480000000000004Q76.188 43.480000000000004 76.69800000000001 43.666000000000004Q77.208 43.852000000000004 77.556 44.176Q77.904 44.5 78.084 44.95Q78.264 45.4 78.264 45.94Q78.264 46.444 78.114 46.870000000000005Q77.964 47.296 77.694 47.686Q77.424 48.076 77.052 48.436Q76.68 48.796 76.236 49.156L74.208 50.86H78.54Z" fill="#e8e2d6"/>
<path d="M200.36800000000002 52.0V51.196H202.45600000000002V44.428H200.36800000000002V43.624H205.55200000000002V44.428H203.46400000000003V51.196H205.55200000000002V52.0Z M211.096 52.144Q209.96800000000002 52.144 209.24800000000002 51.730000000000004Q208.52800000000002 51.316 208.06 50.668L208.792 50.068Q209.28400000000002 50.68 209.83 50.980000000000004Q210.376 51.28 211.132 51.28Q212.044 51.28 212.524 50.86Q213.00400000000002 50.44 213.00400000000002 49.684Q213.00400000000002 49.072 212.656 48.730000000000004Q212.30800000000002 48.388 211.44400000000002 48.244L210.508 48.088Q209.89600000000002 47.98 209.48200000000003 47.763999999999996Q209.068 47.548 208.81600000000003 47.242000000000004Q208.56400000000002 46.936 208.45600000000002 46.57Q208.348 46.204 208.348 45.808Q208.348 44.656 209.104 44.068Q209.86 43.480000000000004 211.144 43.480000000000004Q212.15200000000002 43.480000000000004 212.842 43.816Q213.532 44.152 213.952 44.764L213.244 45.376Q212.89600000000002 44.92 212.404 44.632000000000005Q211.912 44.344 211.132 44.344Q210.28 44.344 209.824 44.704Q209.36800000000002 45.064 209.36800000000002 45.784Q209.36800000000002 46.348 209.71000000000004 46.702Q210.05200000000002 47.056 210.94 47.212L211.84 47.368Q212.452 47.476 212.872 47.692Q213.292 47.908 213.55 48.208Q213.80800000000002 48.508 213.916 48.88Q214.024 49.252 214.024 49.66Q214.024 50.824 213.262 51.483999999999995Q212.5 52.144 211.096 52.144Z M221.14000000000001 47.8V45.147999999999996H221.044L219.28 49.456L217.51600000000002 45.147999999999996H217.42000000000002V47.8V52.0H216.496V43.624H217.792L219.268 47.32H219.34L220.816 43.624H222.06400000000002V52.0H221.14000000000001Z M224.848 52.0V51.196H226.936V44.428H224.848V43.624H230.032V44.428H227.94400000000002V51.196H230.032V52.0Z M234.088 52.0H233.08V43.624H236.128Q237.292 43.624 237.904 44.260000000000005Q238.516 44.896 238.516 46.036Q238.516 47.056 237.988 47.668Q237.46 48.28 236.452 48.376L238.588 52.0H237.46L235.42 48.424H234.088ZM236.104 47.572Q236.74 47.572 237.094 47.254000000000005Q237.448 46.936 237.448 46.348V45.724000000000004Q237.448 45.136 237.094 44.818Q236.74 44.5 236.104 44.5H234.088V47.572Z M254.76399999999998 52.0H249.172V50.968L251.968 48.448Q252.57999999999998 47.896 252.976 47.314Q253.37199999999999 46.732 253.37199999999999 46.084V45.94Q253.37199999999999 45.184 252.976 44.769999999999996Q252.57999999999998 44.356 251.79999999999998 44.356Q251.03199999999998 44.356 250.618 44.746Q250.20399999999998 45.136 250.0 45.784L249.1 45.448Q249.22 45.076 249.43 44.722Q249.64 44.368 249.964 44.092Q250.28799999999998 43.816 250.75 43.648Q251.212 43.480000000000004 251.82399999999998 43.480000000000004Q252.44799999999998 43.480000000000004 252.93399999999997 43.660000000000004Q253.42 43.84 253.75 44.164Q254.07999999999998 44.488 254.254 44.932Q254.428 45.376 254.428 45.903999999999996Q254.428 46.384 254.29 46.804Q254.152 47.224000000000004 253.906 47.608000000000004Q253.66 47.992 253.31799999999998 48.358Q252.976 48.724 252.55599999999998 49.084L250.21599999999998 51.124H254.76399999999998Z M260.08000000000004 52.144Q259.312 52.144 258.76 51.849999999999994Q258.208 51.556 257.848 51.004Q257.488 50.452 257.32000000000005 49.647999999999996Q257.15200000000004 48.844 257.15200000000004 47.812Q257.15200000000004 46.792 257.32000000000005 45.982Q257.488 45.172 257.848 44.62Q258.208 44.068 258.76 43.774Q259.312 43.480000000000004 260.08000000000004 43.480000000000004Q260.848 43.480000000000004 261.4 43.774Q261.952 44.068 262.312 44.62Q262.672 45.172 262.84000000000003 45.982Q263.00800000000004 46.792 263.00800000000004 47.812Q263.00800000000004 48.844 262.84000000000003 49.647999999999996Q262.672 50.452 262.312 51.004Q261.952 51.556 261.4 51.849999999999994Q260.848 52.144 260.08000000000004 52.144ZM260.08000000000004 51.268Q260.584 51.268 260.944 51.07Q261.30400000000003 50.872 261.526 50.512Q261.748 50.152 261.856 49.641999999999996Q261.964 49.132 261.964 48.496V47.128Q261.964 46.504 261.856 45.988Q261.748 45.472 261.526 45.112Q261.30400000000003 44.752 260.944 44.554Q260.584 44.356 260.08000000000004 44.356Q259.576 44.356 259.216 44.554Q258.856 44.752 258.634 45.112Q258.41200000000003 45.472 258.30400000000003 45.988Q258.196 46.504 258.196 47.128V48.496Q258.196 49.132 258.30400000000003 49.641999999999996Q258.41200000000003 50.152 258.634 50.512Q258.856 50.872 259.216 51.07Q259.576 51.268 260.08000000000004 51.268ZM260.08000000000004 48.52Q259.66 48.52 259.49800000000005 48.352000000000004Q259.336 48.184 259.336 47.944V47.68Q259.336 47.44 259.49800000000005 47.272Q259.66 47.104 260.08000000000004 47.104Q260.5 47.104 260.66200000000003 47.272Q260.824 47.44 260.824 47.68V47.944Q260.824 48.184 260.66200000000003 48.352000000000004Q260.5 48.52 260.08000000000004 48.52Z M271.08400000000006 52.0H265.492V50.968L268.28800000000007 48.448Q268.90000000000003 47.896 269.29600000000005 47.314Q269.69200000000006 46.732 269.69200000000006 46.084V45.94Q269.69200000000006 45.184 269.29600000000005 44.769999999999996Q268.90000000000003 44.356 268.12000000000006 44.356Q267.35200000000003 44.356 266.93800000000005 44.746Q266.52400000000006 45.136 266.32000000000005 45.784L265.42 45.448Q265.54 45.076 265.75 44.722Q265.96000000000004 44.368 266.28400000000005 44.092Q266.60800000000006 43.816 267.07000000000005 43.648Q267.53200000000004 43.480000000000004 268.14400000000006 43.480000000000004Q268.76800000000003 43.480000000000004 269.254 43.660000000000004Q269.74000000000007 43.84 270.07000000000005 44.164Q270.40000000000003 44.488 270.57400000000007 44.932Q270.74800000000005 45.376 270.74800000000005 45.903999999999996Q270.74800000000005 46.384 270.61 46.804Q270.47200000000004 47.224000000000004 270.226 47.608000000000004Q269.98 47.992 269.63800000000003 48.358Q269.29600000000005 48.724 268.87600000000003 49.084L266.53600000000006 51.124H271.08400000000006Z M276.4120000000001 52.144Q275.75200000000007 52.144 275.22400000000005 51.922Q274.6960000000001 51.7 274.33000000000004 51.286Q273.96400000000006 50.872 273.7660000000001 50.272Q273.56800000000004 49.672 273.56800000000004 48.928Q273.56800000000004 47.992 273.85 47.17Q274.13200000000006 46.348 274.57000000000005 45.67Q275.0080000000001 44.992 275.5480000000001 44.47Q276.0880000000001 43.948 276.60400000000004 43.624H277.9000000000001Q277.21600000000007 44.116 276.6820000000001 44.584Q276.1480000000001 45.052 275.74000000000007 45.562Q275.33200000000005 46.072 275.05600000000004 46.653999999999996Q274.7800000000001 47.236 274.6000000000001 47.968L274.6600000000001 47.992Q274.9600000000001 47.476 275.4520000000001 47.134Q275.9440000000001 46.792 276.72400000000005 46.792Q277.27600000000007 46.792 277.7320000000001 46.972Q278.18800000000005 47.152 278.52400000000006 47.488Q278.86000000000007 47.824 279.04600000000005 48.304Q279.2320000000001 48.784 279.2320000000001 49.372Q279.2320000000001 49.984 279.0280000000001 50.494Q278.82400000000007 51.004 278.4580000000001 51.37Q278.09200000000004 51.736 277.57000000000005 51.94Q277.04800000000006 52.144 276.4120000000001 52.144ZM276.4000000000001 51.292Q277.26400000000007 51.292 277.73800000000006 50.824Q278.21200000000005 50.356 278.21200000000005 49.504V49.408Q278.21200000000005 48.556 277.73800000000006 48.087999999999994Q277.26400000000007 47.62 276.4000000000001 47.62Q275.53600000000006 47.62 275.06200000000007 48.087999999999994Q274.5880000000001 48.556 274.5880000000001 49.408V49.504Q274.5880000000001 50.356 275.06200000000007 50.824Q275.53600000000006 51.292 276.4000000000001 51.292Z" fill="#e8e2d6"/>
<path d="M32.69 84.58 31.69 85.76V88.0H30.85V81.02H31.69V84.66H31.72L32.64 83.5L34.7 81.02H35.71L33.26 83.96L35.78 88.0H34.8Z M37.45 81.02H39.4Q40.68 81.02 41.31 81.9Q41.94 82.78 41.94 84.51Q41.94 86.24 41.31 87.12Q40.68 88.0 39.4 88.0H37.45ZM39.36 87.27Q40.2 87.27 40.625 86.69Q41.05 86.11 41.05 85.05V83.97Q41.05 82.91 40.625 82.33Q40.2 81.75 39.36 81.75H38.29V87.27Z" fill="#e8e2d6"/>
<path d="M58 84H280" stroke="#e8e2d6" stroke-opacity="0.3" stroke-width="1"/>
<path d="M64.0 78V90M94.0 78V90M124.0 78V90M154.0 78V90M184.0 78V90M214.0 78V90M244.0 78V90" stroke="#e8e2d6" stroke-width="2"/>
<path d="M32.98 110.12Q32.04 110.12 31.439999999999998 109.775Q30.84 109.43 30.45 108.89L31.06 108.39Q31.47 108.9 31.925 109.15Q32.38 109.4 33.01 109.4Q33.77 109.4 34.17 109.05000000000001Q34.57 108.7 34.57 108.07Q34.57 107.56 34.28 107.275Q33.99 106.99 33.27 106.87L32.49 106.74Q31.98 106.65 31.634999999999998 106.47Q31.29 106.29 31.08 106.035Q30.87 105.78 30.78 105.475Q30.69 105.17 30.69 104.84Q30.69 103.88 31.32 103.39Q31.95 102.9 33.02 102.9Q33.86 102.9 34.435 103.18Q35.01 103.46 35.36 103.97L34.77 104.48Q34.480000000000004 104.1 34.07 103.86Q33.66 103.62 33.01 103.62Q32.3 103.62 31.919999999999998 103.92Q31.54 104.22 31.54 104.82Q31.54 105.29 31.825 105.58500000000001Q32.11 105.88 32.85 106.01L33.6 106.14Q34.11 106.23 34.46 106.41Q34.81 106.59 35.025000000000006 106.84Q35.24 107.09 35.33 107.4Q35.42 107.71 35.42 108.05Q35.42 109.02 34.785 109.57Q34.15 110.12 32.98 110.12Z M37.45 103.02H39.4Q40.68 103.02 41.31 103.9Q41.94 104.78 41.94 106.51Q41.94 108.24 41.31 109.12Q40.68 110.0 39.4 110.0H37.45ZM39.36 109.27Q40.2 109.27 40.625 108.69Q41.05 108.11 41.05 107.05V105.97Q41.05 104.91 40.625 104.33Q40.2 103.75 39.36 103.75H38.29V109.27Z" fill="#e8e2d6"/>
<path d="M58 106H280" stroke="#e8e2d6" stroke-opacity="0.3" stroke-width="1"/>
<path d="M64.0 100V112M86.5 100V112M109.0 100V112M146.5 100V112M206.5 100V112M236.5 100V112" stroke="#e8e2d6" stroke-width="2"/>
<path d="M33.42 125.75V132.0H32.58V125.75H30.25V125.02H35.75V125.75Z M39.92 125.75V132.0H39.08V125.75H36.75V125.02H42.25V125.75Z" fill="#e8e2d6"/>
<path d="M58 128H280" stroke="#e8e2d6" stroke-opacity="0.3" stroke-width="1"/>
<path d="M199.0 122V134" stroke="#e8e2d6" stroke-width="2"/>
<path d="M34.36 150.83H31.64V154.0H30.8V147.02H31.64V150.1H34.36V147.02H35.2V154.0H34.36Z M40.86 150.83H38.14V154.0H37.3V147.02H38.14V150.1H40.86V147.02H41.7V154.0H40.86Z" fill="#e8e2d6"/>
<path d="M58 150H280" stroke="#e8e2d6" stroke-opacity="0.3" stroke-width="1"/>
<path d="M71.5 144V156M79.0 144V156M86.5 144V156M94.0 144V156M101.5 144V156M109.0 144V156M116.5 144V156M124.0 144V156M131.5 144V156M139.0 144V156M146.5 144V156M154.0 144V156M161.5 144V156M169.0 144V156M176.5 144V156M184.0 144V156M191.5 144V156M199.0 144V156M206.5 144V156M214.0 144V156M221.5 144V156M229.0 144V156M236.5 144V156M244.0 144V156M251.5 144V156M266.5 144V156" stroke="#e8e2d6" stroke-width="2"/>
<path d="M33.23 176.12Q31.95 176.12 31.325 175.19Q30.7 174.26 30.7 172.51Q30.7 170.76 31.325 169.82999999999998Q31.95 168.9 33.23 168.9Q33.71 168.9 34.06 169.03Q34.41 169.16 34.66 169.38Q34.91 169.6 35.08 169.875Q35.25 170.15 35.38 170.43L34.66 170.76Q34.57 170.53 34.45 170.325Q34.33 170.12 34.165 169.965Q34.0 169.81 33.775 169.72Q33.55 169.63 33.23 169.63Q32.4 169.63 31.994999999999997 170.26Q31.59 170.89 31.59 171.94V173.08Q31.59 174.13 31.994999999999997 174.76Q32.4 175.39 33.23 175.39Q33.55 175.39 33.775 175.3Q34.0 175.21 34.165 175.055Q34.33 174.9 34.45 174.695Q34.57 174.49 34.66 174.26L35.38 174.59Q35.25 174.88 35.08 175.14999999999998Q34.91 175.42 34.66 175.64Q34.41 175.86 34.06 175.99Q33.71 176.12 33.23 176.12Z M39.08 176.0V173.26L36.67 169.02H37.63L38.63 170.84L39.48 172.43H39.52L40.39 170.84L41.39 169.02H42.33L39.92 173.26V176.0Z" fill="#e8e2d6"/>
<path d="M58 172H280" stroke="#e8e2d6" stroke-opacity="0.3" stroke-width="1"/>
<path d="M86.5 166V178M251.5 166V178" stroke="#e8e2d6" stroke-width="2"/>
<path d="M41.475 281.8625 39.6 281.4625 41.15 280.325H41.475L42.35 286.05L41.7125 286.175L39.2625 282.2125L39.9625 283.0375Q39.275 282.525 38.55 282.28125Q37.825 282.0375 37.025 282.0375Q35.4375 282.0375 34.65625 282.71875Q33.875 283.4 33.875 284.525Q33.875 285.3 34.225 285.81875Q34.575 286.3375 35.1875 286.70624999999995Q35.8 287.075 36.575 287.36249999999995Q37.35 287.65 38.2 287.9375Q39.0375 288.2375 39.875 288.6125Q40.7125 288.9875 41.40625 289.54375000000005Q42.1 290.1 42.51875 290.93125Q42.9375 291.7625 42.9375 292.9625Q42.9375 294.6875 42.0875 295.875Q41.2375 297.0625 39.78125 297.675Q38.325 298.2875 36.4625 298.2875Q35.1875 298.2875 34.175 298.125Q33.1625 297.9625 32.0625 297.5375L30.975 292.9125H31.7L35.05 297.55L32.6125 296.0125Q33.6125 296.5375 34.4 296.78125Q35.1875 297.025 36.075 297.025Q37.4625 297.025 38.39375 296.6875Q39.325 296.35 39.8 295.68125Q40.275 295.0125 40.275 294.025Q40.275 293.1125 39.8375 292.51250000000005Q39.4 291.9125 38.6875 291.51875Q37.975 291.125 37.13125 290.8375Q36.2875 290.55 35.4625 290.2375Q34.6375 289.9375 33.90625 289.55625Q33.175 289.175 32.6125 288.65Q32.05 288.125 31.73125 287.375Q31.4125 286.625 31.4125 285.575Q31.4125 284.125 32.13125 283.0625Q32.85 282.0 34.175 281.41875Q35.5 280.8375 37.2875 280.8375Q38.45 280.8375 39.44375 281.075Q40.4375 281.3125 41.475 281.8625Z M50.2 286.75Q51.55 286.75 52.5125 287.31875Q53.475 287.8875 54.03125 288.98125Q54.5875 290.075 54.7125 291.625H46.875L46.9 290.675L53.275 290.3875L51.9875 290.9875Q51.925 289.9625 51.68125 289.25625Q51.4375 288.55 51.01875 288.175Q50.6 287.8 49.95 287.8Q49.2125 287.8 48.65625 288.21875Q48.1 288.6375 47.7875 289.525Q47.475 290.4125 47.475 291.8125Q47.475 293.2375 47.98125 294.2375Q48.4875 295.2375 49.412499999999994 295.76250000000005Q50.3375 296.2875 51.5875 296.2875Q52.1 296.2875 52.58125 296.16875000000005Q53.0625 296.05 53.525 295.80625Q53.9875 295.5625 54.4375 295.1875L54.8 295.6375Q54.125 296.5 53.40625 297.09375Q52.6875 297.6875 51.88125 297.9875Q51.075 298.2875 50.15 298.2875Q48.575 298.2875 47.375 297.56875Q46.175 296.85 45.5 295.58125Q44.825 294.3125 44.825 292.6875Q44.825 291.0625 45.45625 289.7125Q46.0875 288.3625 47.29375 287.55625Q48.5 286.75 50.2 286.75Z M65.725 292.6625Q65.725 290.575 64.88749999999999 289.51874999999995Q64.05 288.4625 62.6375 288.4625Q62.0625 288.4625 61.525 288.56875Q60.9875 288.675 60.5 288.88750000000005Q60.0125 289.1 59.575 289.4375L59.425 288.5625Q60.1125 288.1 60.73125 287.76250000000005Q61.35 287.425 61.90625 287.19375Q62.4625 286.9625 62.974999999999994 286.85625Q63.4875 286.75 63.9375 286.75Q65.4875 286.75 66.54374999999999 287.4125Q67.6 288.075 68.14375 289.23749999999995Q68.6875 290.4 68.6875 291.9125Q68.6875 293.9 67.85625 295.33124999999995Q67.025 296.7625 65.63125 297.525Q64.2375 298.2875 62.5625 298.2875Q61.925 298.2875 61.318749999999994 298.1875Q60.7125 298.0875 60.075 297.88125Q59.4375 297.675 58.7125 297.325H60.3125V303.1375L62.2375 303.775V304.2375H55.875V303.775L57.5625 303.175V289.4875Q57.3875 289.3 57.14375 289.13125Q56.9 288.9625 56.575 288.79375Q56.25 288.625 55.825 288.4375V288.0625L59.6375 286.7H59.9625L60.3125 288.3625V294.8125Q60.3125 295.4875 60.6125 296.03125Q60.9125 296.575 61.475 296.88125Q62.0375 297.1875 62.8125 297.1875Q63.7375 297.1875 64.38749999999999 296.68125Q65.0375 296.175 65.38125 295.1625Q65.725 294.15 65.725 292.6625Z M77.03750000000001 291.0625 77.16250000000001 292.0Q75.9 292.3125 75.10000000000001 292.63125Q74.30000000000001 292.95 73.86250000000001 293.2875Q73.42500000000001 293.625 73.25625000000001 294.00625Q73.0875 294.3875 73.0875 294.8375Q73.0875 295.6875 73.525 296.10625Q73.9625 296.525 74.61250000000001 296.525Q75.11250000000001 296.525 75.51250000000002 296.26874999999995Q75.91250000000001 296.0125 76.15625 295.5875Q76.4 295.1625 76.4 294.65V289.8875Q76.4 289.0375 75.95 288.54375000000005Q75.5 288.05 74.5125 288.05Q74.11250000000001 288.05 73.66875000000002 288.14375Q73.22500000000001 288.2375 72.8375 288.425L73.375 287.7125Q73.3125 288.2625 73.225 288.68125Q73.1375 289.1 73.0375 289.38125Q72.9375 289.6625 72.80000000000001 289.8125Q72.60000000000001 290.0375 72.26250000000002 290.1625Q71.92500000000001 290.2875 71.5625 290.2875Q71.0875 290.2875 70.825 290.09375Q70.5625 289.9 70.5625 289.575Q70.5625 289.1 71.0 288.61875Q71.4375 288.1375 72.17500000000001 287.725Q72.91250000000001 287.3125 73.81875000000001 287.0625Q74.72500000000001 286.8125 75.66250000000001 286.8125Q76.9625 286.8125 77.72500000000001 287.20625Q78.48750000000001 287.6 78.8125 288.31875Q79.1375 289.0375 79.1375 290.0375V295.75Q79.1375 296.1 79.24375 296.33125Q79.35000000000001 296.5625 79.54375000000002 296.675Q79.73750000000001 296.7875 80.025 296.7875Q80.30000000000001 296.7875 80.61250000000001 296.6875Q80.92500000000001 296.5875 81.23750000000001 296.4V297.0625Q80.61250000000001 297.675 79.9375 297.975Q79.2625 298.275 78.66250000000001 298.275Q77.91250000000001 298.275 77.43125 297.975Q76.95 297.675 76.7125 297.1125Q76.47500000000001 296.55 76.4625 295.7875L76.5625 295.725Q76.36250000000001 296.525 75.9 297.1Q75.4375 297.675 74.80625 297.98125000000005Q74.17500000000001 298.2875 73.42500000000001 298.2875Q72.0875 298.2875 71.24375 297.5625Q70.4 296.8375 70.4 295.45Q70.4 294.7375 70.68125 294.1625Q70.9625 293.5875 71.68125 293.075Q72.4 292.5625 73.7 292.06875Q75.0 291.575 77.03750000000001 291.0625Z M89.7625 286.85Q90.475 286.85 90.79374999999999 287.21875Q91.1125 287.5875 91.1125 288.15Q91.1125 288.8875 90.65 289.2875Q90.1875 289.6875 89.525 289.6875Q89.125 289.6875 88.825 289.58125Q88.525 289.475 88.21875 289.375Q87.9125 289.275 87.525 289.275Q87.2375 289.275 86.925 289.35625Q86.6125 289.4375 86.3125 289.5875Q86.0125 289.7375 85.75 289.95L85.5 289.4Q86.2375 288.7125 86.84375 288.23125Q87.45 287.75 87.975 287.44375Q88.5 287.1375 88.9375 286.99375Q89.375 286.85 89.7625 286.85ZM86.1625 289.1625V296.9L87.9875 297.525V298.0H81.725V297.525L83.425 296.925V289.525Q83.2375 289.3125 82.99375 289.14375Q82.75 288.975 82.425 288.8125Q82.1 288.65 81.6875 288.475V288.1L85.65 286.7375H85.9625Z M98.4625 291.0625 98.5875 292.0Q97.325 292.3125 96.525 292.63125Q95.72500000000001 292.95 95.28750000000001 293.2875Q94.85000000000001 293.625 94.68125 294.00625Q94.5125 294.3875 94.5125 294.8375Q94.5125 295.6875 94.95 296.10625Q95.3875 296.525 96.03750000000001 296.525Q96.53750000000001 296.525 96.9375 296.26874999999995Q97.3375 296.0125 97.58125000000001 295.5875Q97.825 295.1625 97.825 294.65V289.8875Q97.825 289.0375 97.375 288.54375000000005Q96.925 288.05 95.9375 288.05Q95.53750000000001 288.05 95.09375 288.14375Q94.65 288.2375 94.2625 288.425L94.8 287.7125Q94.7375 288.2625 94.65 288.68125Q94.5625 289.1 94.4625 289.38125Q94.3625 289.6625 94.22500000000001 289.8125Q94.025 290.0375 93.6875 290.1625Q93.35000000000001 290.2875 92.9875 290.2875Q92.5125 290.2875 92.25 290.09375Q91.9875 289.9 91.9875 289.575Q91.9875 289.1 92.425 288.61875Q92.8625 288.1375 93.6 287.725Q94.3375 287.3125 95.24375 287.0625Q96.15 286.8125 97.0875 286.8125Q98.3875 286.8125 99.15 287.20625Q99.91250000000001 287.6 100.23750000000001 288.31875Q100.5625 289.0375 100.5625 290.0375V295.75Q100.5625 296.1 100.66875 296.33125Q100.775 296.5625 100.96875 296.675Q101.16250000000001 296.7875 101.45 296.7875Q101.72500000000001 296.7875 102.03750000000001 296.6875Q102.35000000000001 296.5875 102.66250000000001 296.4V297.0625Q102.03750000000001 297.675 101.36250000000001 297.975Q100.6875 298.275 100.0875 298.275Q99.3375 298.275 98.85625 297.975Q98.375 297.675 98.1375 297.1125Q97.9 296.55 97.8875 295.7875L97.9875 295.725Q97.78750000000001 296.525 97.325 297.1Q96.8625 297.675 96.23125 297.98125000000005Q95.60000000000001 298.2875 94.85000000000001 298.2875Q93.5125 298.2875 92.66875 297.5625Q91.825 296.8375 91.825 295.45Q91.825 294.7375 92.10625 294.1625Q92.3875 293.5875 93.10625 293.075Q93.825 292.5625 95.125 292.06875Q96.425 291.575 98.4625 291.0625Z M107.2125 294.7875Q107.2125 295.55 107.71875 295.95625Q108.22500000000001 296.3625 109.16250000000001 296.3625Q109.62500000000001 296.3625 110.16875000000002 296.26250000000005Q110.7125 296.1625 111.36250000000001 295.9625V296.6125Q110.525 297.225 109.86250000000001 297.5875Q109.2 297.95 108.65625 298.10625Q108.11250000000001 298.2625 107.61250000000001 298.2625Q106.68750000000001 298.2625 105.98125000000002 297.93125Q105.275 297.6 104.875 296.91875000000005Q104.47500000000001 296.2375 104.47500000000001 295.2V289.0L102.93750000000001 287.8875V287.525Q103.23750000000001 287.325 103.59375 287.0875Q103.95 286.85 104.33125000000001 286.59375Q104.7125 286.3375 105.10625000000002 286.06875Q105.50000000000001 285.8 105.88750000000002 285.53125Q106.275 285.2625 106.6375 285.0125H107.2125V287.375ZM106.12500000000001 288.4625V287.0375H110.9625L110.73750000000001 288.4625Z M117.4625 286.75Q118.8125 286.75 119.775 287.31875Q120.7375 287.8875 121.29375 288.98125Q121.85000000000001 290.075 121.97500000000001 291.625H114.1375L114.16250000000001 290.675L120.53750000000001 290.3875L119.25 290.9875Q119.1875 289.9625 118.94375 289.25625Q118.7 288.55 118.28125 288.175Q117.8625 287.8 117.2125 287.8Q116.47500000000001 287.8 115.91875 288.21875Q115.3625 288.6375 115.05 289.525Q114.7375 290.4125 114.7375 291.8125Q114.7375 293.2375 115.24375 294.2375Q115.75 295.2375 116.67500000000001 295.76250000000005Q117.60000000000001 296.2875 118.85000000000001 296.2875Q119.3625 296.2875 119.84375 296.16875000000005Q120.325 296.05 120.7875 295.80625Q121.25 295.5625 121.7 295.1875L122.0625 295.6375Q121.3875 296.5 120.66875 297.09375Q119.95 297.6875 119.14375000000001 297.9875Q118.3375 298.2875 117.41250000000001 298.2875Q115.8375 298.2875 114.6375 297.56875Q113.4375 296.85 112.7625 295.58125Q112.0875 294.3125 112.0875 292.6875Q112.0875 291.0625 112.71875 289.7125Q113.35000000000001 288.3625 114.55625 287.55625Q115.7625 286.75 117.4625 286.75Z M124.17500000000001 291.45H129.91250000000002V293.3375H124.17500000000001Z M138.5875 291.0625 138.7125 292.0Q137.45000000000002 292.3125 136.65000000000003 292.63125Q135.85000000000002 292.95 135.41250000000002 293.2875Q134.97500000000002 293.625 134.80625000000003 294.00625Q134.63750000000002 294.3875 134.63750000000002 294.8375Q134.63750000000002 295.6875 135.07500000000002 296.10625Q135.51250000000002 296.525 136.16250000000002 296.525Q136.66250000000002 296.525 137.0625 296.26874999999995Q137.4625 296.0125 137.70625 295.5875Q137.95000000000002 295.1625 137.95000000000002 294.65V289.8875Q137.95000000000002 289.0375 137.5 288.54375000000005Q137.05 288.05 136.06250000000003 288.05Q135.66250000000002 288.05 135.21875 288.14375Q134.775 288.2375 134.38750000000002 288.425L134.925 287.7125Q134.8625 288.2625 134.77500000000003 288.68125Q134.68750000000003 289.1 134.58750000000003 289.38125Q134.4875 289.6625 134.35000000000002 289.8125Q134.15 290.0375 133.8125 290.1625Q133.47500000000002 290.2875 133.1125 290.2875Q132.63750000000002 290.2875 132.375 290.09375Q132.1125 289.9 132.1125 289.575Q132.1125 289.1 132.55 288.61875Q132.9875 288.1375 133.72500000000002 287.725Q134.4625 287.3125 135.36875 287.0625Q136.275 286.8125 137.2125 286.8125Q138.51250000000002 286.8125 139.27500000000003 287.20625Q140.03750000000002 287.6 140.3625 288.31875Q140.68750000000003 289.0375 140.68750000000003 290.0375V295.75Q140.68750000000003 296.1 140.79375000000002 296.33125Q140.9 296.5625 141.09375 296.675Q141.28750000000002 296.7875 141.57500000000002 296.7875Q141.85000000000002 296.7875 142.16250000000002 296.6875Q142.47500000000002 296.5875 142.78750000000002 296.4V297.0625Q142.16250000000002 297.675 141.4875 297.975Q140.81250000000003 298.275 140.2125 298.275Q139.4625 298.275 138.98125000000002 297.975Q138.50000000000003 297.675 138.26250000000002 297.1125Q138.025 296.55 138.01250000000002 295.7875L138.1125 295.725Q137.91250000000002 296.525 137.45000000000002 297.1Q136.9875 297.675 136.35625000000002 297.98125000000005Q135.72500000000002 298.2875 134.97500000000002 298.2875Q133.63750000000002 298.2875 132.79375000000002 297.5625Q131.95000000000002 296.8375 131.95000000000002 295.45Q131.95000000000002 294.7375 132.23125000000002 294.1625Q132.51250000000002 293.5875 133.23125000000002 293.075Q133.95000000000002 292.5625 135.25 292.06875Q136.55 291.575 138.5875 291.0625Z M147.7125 289.1875V296.9625L149.32500000000002 297.525V298.0H143.275V297.525L144.97500000000002 296.925V289.525Q144.72500000000002 289.2375 144.33750000000003 288.99375Q143.95000000000002 288.75 143.2375 288.475V288.1L146.9375 286.7375H147.26250000000002ZM150.7125 297.525 152.32500000000002 296.9625V290.8375Q152.32500000000002 290.2125 152.08125 289.78125Q151.8375 289.35 151.35625 289.125Q150.875 288.9 150.15 288.9Q149.28750000000002 288.9 148.55625000000003 289.18125Q147.82500000000002 289.4625 147.45000000000002 289.875L147.0 289.4375Q147.75 288.6375 148.38125000000002 288.11249999999995Q149.01250000000002 287.5875 149.58125 287.29375Q150.15 287.0 150.71875 286.875Q151.28750000000002 286.75 151.91250000000002 286.75Q153.525 286.75 154.29375 287.7375Q155.0625 288.725 155.0625 290.8125V296.925L156.775 297.525V298.0H150.7125Z M166.225 290.225Q166.225 289.2 165.6 288.525Q164.975 287.85 163.7875 287.85Q162.8375 287.85 162.16875 288.35625000000005Q161.5 288.8625 161.15 289.85625000000005Q160.8 290.85 160.8 292.3125Q160.8 293.7375 161.18125 294.69375Q161.5625 295.65 162.25625 296.125Q162.95 296.6 163.8875 296.6Q164.675 296.6 165.41875 296.35625000000005Q166.1625 296.1125 166.8625 295.5625L166.875 296.5Q166.0625 297.0375 165.46875 297.39375Q164.875 297.75 164.4 297.94375Q163.925 298.1375 163.50625000000002 298.2125Q163.0875 298.2875 162.6625 298.2875Q161.1 298.2875 160.02499999999998 297.63125Q158.95 296.975 158.39375 295.79375000000005Q157.8375 294.6125 157.8375 293.075Q157.8375 291.55 158.3375 290.375Q158.8375 289.2 159.70625 288.39374999999995Q160.575 287.5875 161.6875 287.16875Q162.8 286.75 164.025 286.75Q164.675 286.75 165.28750000000002 286.85Q165.9 286.95 166.53750000000002 287.15625Q167.175 287.3625 167.9125 287.7125L166.225 288.1625V282.8125Q166.05 282.6125 165.8 282.425Q165.55 282.2375 165.21875 282.05Q164.8875 281.8625 164.4875 281.6875V281.3125L168.825 280.125H169.125L168.9625 282.475V296.1Q169.1 296.2375 169.2875 296.36875Q169.475 296.5 169.7 296.61875Q169.925 296.7375 170.15625 296.83125Q170.3875 296.925 170.6 296.9875V297.4L166.7875 298.275H166.475L166.225 296.3125Z M171.9125 291.45H177.65V293.3375H171.9125Z M193.2875 289.35Q193.2875 285.8125 191.375 284.125Q189.4625 282.4375 186.0875 282.4375H182.725L182.5625 281.125H186.7Q189.975 281.125 192.15625 282.0Q194.3375 282.875 195.425 284.64375Q196.5125 286.4125 196.5125 289.075Q196.5125 291.9125 195.23125 293.90625Q193.95 295.9 191.74374999999998 296.95Q189.5375 298.0 186.75 298.0H182.5625L182.725 296.6875H186.35Q188.45 296.6875 190.00625 295.9375Q191.5625 295.1875 192.425 293.56875Q193.2875 291.95 193.2875 289.35ZM179.35 298.0V297.5L181.2625 296.825V282.3L179.35 281.625V281.125H184.3125V298.0Z M203.7 286.75Q205.05 286.75 206.0125 287.31875Q206.975 287.8875 207.53125 288.98125Q208.0875 290.075 208.2125 291.625H200.375L200.4 290.675L206.775 290.3875L205.4875 290.9875Q205.425 289.9625 205.18125 289.25625Q204.9375 288.55 204.51875 288.175Q204.1 287.8 203.45 287.8Q202.7125 287.8 202.15625 288.21875Q201.6 288.6375 201.2875 289.525Q200.975 290.4125 200.975 291.8125Q200.975 293.2375 201.48125 294.2375Q201.9875 295.2375 202.91250000000002 295.76250000000005Q203.8375 296.2875 205.0875 296.2875Q205.6 296.2875 206.08125 296.16875000000005Q206.5625 296.05 207.025 295.80625Q207.4875 295.5625 207.9375 295.1875L208.3 295.6375Q207.625 296.5 206.90625 297.09375Q206.1875 297.6875 205.38125 297.9875Q204.575 298.2875 203.65 298.2875Q202.075 298.2875 200.875 297.56875Q199.675 296.85 199.0 295.58125Q198.325 294.3125 198.325 292.6875Q198.325 291.0625 198.95625 289.7125Q199.5875 288.3625 200.79375 287.55625Q202.0 286.75 203.7 286.75Z M213.675 294.7875Q213.675 295.55 214.18125 295.95625Q214.6875 296.3625 215.625 296.3625Q216.0875 296.3625 216.63125000000002 296.26250000000005Q217.175 296.1625 217.825 295.9625V296.6125Q216.9875 297.225 216.325 297.5875Q215.6625 297.95 215.11874999999998 298.10625Q214.575 298.2625 214.075 298.2625Q213.15 298.2625 212.44375000000002 297.93125Q211.7375 297.6 211.3375 296.91875000000005Q210.9375 296.2375 210.9375 295.2V289.0L209.4 287.8875V287.525Q209.7 287.325 210.05624999999998 287.0875Q210.4125 286.85 210.79375 286.59375Q211.175 286.3375 211.56875000000002 286.06875Q211.9625 285.8 212.35000000000002 285.53125Q212.7375 285.2625 213.1 285.0125H213.675V287.375ZM212.5875 288.4625V287.0375H217.425L217.2 288.4625Z M223.92499999999998 286.75Q225.275 286.75 226.2375 287.31875Q227.2 287.8875 227.75625 288.98125Q228.3125 290.075 228.4375 291.625H220.6L220.625 290.675L227.0 290.3875L225.7125 290.9875Q225.65 289.9625 225.40625 289.25625Q225.1625 288.55 224.74374999999998 288.175Q224.325 287.8 223.67499999999998 287.8Q222.9375 287.8 222.38125 288.21875Q221.825 288.6375 221.5125 289.525Q221.2 290.4125 221.2 291.8125Q221.2 293.2375 221.70625 294.2375Q222.2125 295.2375 223.1375 295.76250000000005Q224.0625 296.2875 225.3125 296.2875Q225.825 296.2875 226.30624999999998 296.16875000000005Q226.7875 296.05 227.25 295.80625Q227.7125 295.5625 228.1625 295.1875L228.525 295.6375Q227.85 296.5 227.13125 297.09375Q226.4125 297.6875 225.60625 297.9875Q224.79999999999998 298.2875 223.875 298.2875Q222.29999999999998 298.2875 221.1 297.56875Q219.9 296.85 219.225 295.58125Q218.54999999999998 294.3125 218.54999999999998 292.6875Q218.54999999999998 291.0625 219.18124999999998 289.7125Q219.8125 288.3625 221.01875 287.55625Q222.225 286.75 223.92499999999998 286.75Z M236.42499999999998 286.75Q237.575 286.75 238.26875 286.99375Q238.9625 287.2375 239.26875 287.61875Q239.575 288.0 239.575 288.4Q239.575 288.8 239.39999999999998 289.10625000000005Q239.225 289.4125 238.9125 289.57500000000005Q238.6 289.7375 238.2 289.7375Q237.8375 289.7375 237.525 289.55625Q237.2125 289.375 236.93125 289.1Q236.65 288.825 236.36875 288.54999999999995Q236.0875 288.275 235.7875 288.0875Q235.48749999999998 287.9 235.125 287.9Q234.5125 287.9 233.95 288.275Q233.3875 288.65 233.0375 289.44375Q232.6875 290.2375 232.6875 291.4875Q232.6875 293.0375 233.1625 294.1125Q233.6375 295.1875 234.5125 295.7375Q235.3875 296.2875 236.575 296.2875Q237.3375 296.2875 238.01875 296.01875Q238.7 295.75 239.35 295.2L239.7125 295.6375Q239.0125 296.5625 238.2875 297.15Q237.5625 297.7375 236.79375 298.01250000000005Q236.025 298.2875 235.17499999999998 298.2875Q233.65 298.2875 232.49375 297.58125Q231.3375 296.875 230.69375 295.63125Q230.04999999999998 294.3875 230.04999999999998 292.8125Q230.04999999999998 291.5625 230.48125 290.45625Q230.9125 289.35 231.73125 288.51875Q232.54999999999998 287.6875 233.73125 287.21875Q234.9125 286.75 236.42499999999998 286.75Z M244.88750000000002 294.7875Q244.88750000000002 295.55 245.39375 295.95625Q245.9 296.3625 246.8375 296.3625Q247.3 296.3625 247.84375 296.26250000000005Q248.38750000000002 296.1625 249.0375 295.9625V296.6125Q248.20000000000002 297.225 247.53750000000002 297.5875Q246.875 297.95 246.33125 298.10625Q245.7875 298.2625 245.2875 298.2625Q244.3625 298.2625 243.65625 297.93125Q242.95000000000002 297.6 242.55 296.91875000000005Q242.15 296.2375 242.15 295.2V289.0L240.6125 287.8875V287.525Q240.9125 287.325 241.26875 287.0875Q241.625 286.85 242.00625000000002 286.59375Q242.38750000000002 286.3375 242.78125 286.06875Q243.175 285.8 243.5625 285.53125Q243.95000000000002 285.2625 244.3125 285.0125H244.88750000000002V287.375ZM243.8 288.4625V287.0375H248.63750000000002L248.4125 288.4625Z" fill="#e8e2d6"/>
</svg>